<svg width="552" height="287" viewBox="0 0 552 287" fill="none" xmlns="http://www.w3.org/2000/svg">
<g filter="url(#filter0_d_12_14097)">
<rect width="520" height="255" transform="translate(16 14)" fill="var(--vscode-quickInput-background)"/>
<path d="M42.4399 37H43.7183L40.9199 29.2495H39.6255L36.8271 37H38.0625L38.7769 34.9053H41.731L42.4399 37ZM40.2109 30.6191H40.3022L41.4248 33.9385H39.083L40.2109 30.6191ZM44.8569 37H50.6792V35.9634H46.3877V35.8721L50.5771 30.0713V29.2495H44.9858V30.2861H49.0679V30.3774L44.8569 36.1782V37ZM53.6011 29.2495H52.3979V34.3306C52.3979 36.0063 53.5957 37.188 55.5347 37.188C57.4844 37.188 58.6768 36.0063 58.6768 34.3306V29.2495H57.4736V34.2339C57.4736 35.3403 56.77 36.1191 55.5347 36.1191C54.3047 36.1191 53.6011 35.3403 53.6011 34.2339V29.2495ZM61.8188 34.019H63.5161L65.0952 37H66.4863L64.7461 33.8311C65.6914 33.5142 66.25 32.6655 66.25 31.6182C66.25 30.1733 65.2456 29.2495 63.6826 29.2495H60.6157V37H61.8188V34.019ZM61.8188 30.2593H63.5161C64.4453 30.2593 65.0146 30.7803 65.0146 31.645C65.0146 32.5312 64.4775 33.0308 63.5483 33.0308H61.8188V30.2593ZM72.8833 35.9634H69.1665V33.5518H72.6846V32.5527H69.1665V30.2861H72.8833V29.2495H67.9634V37H72.8833V35.9634ZM75.3862 33.0469C75.8428 33.0469 76.1758 32.7085 76.1758 32.2734C76.1758 31.8384 75.8428 31.5 75.3862 31.5C74.9351 31.5 74.5967 31.8384 74.5967 32.2734C74.5967 32.7085 74.9351 33.0469 75.3862 33.0469ZM75.3862 37.0806C75.8428 37.0806 76.1758 36.7422 76.1758 36.3071C76.1758 35.8721 75.8428 35.5337 75.3862 35.5337C74.9351 35.5337 74.5967 35.8721 74.5967 36.3071C74.5967 36.7422 74.9351 37.0806 75.3862 37.0806ZM86.1177 37H87.396L84.5977 29.2495H83.3032L80.5049 37H81.7402L82.4546 34.9053H85.4087L86.1177 37ZM83.8887 30.6191H83.98L85.1025 33.9385H82.7607L83.8887 30.6191ZM91.564 37.188C93.2935 37.188 94.5664 36.1943 94.7812 34.6851H93.5835C93.3687 35.5659 92.5898 36.1191 91.564 36.1191C90.1675 36.1191 89.2974 34.9697 89.2974 33.1274C89.2974 31.2852 90.1675 30.1304 91.5586 30.1304C92.5791 30.1304 93.3579 30.7427 93.5835 31.7041H94.7812C94.5879 30.1519 93.2666 29.0615 91.5586 29.0615C89.4048 29.0615 88.0674 30.6191 88.0674 33.1274C88.0674 35.6304 89.4102 37.188 91.564 37.188ZM99.2983 37V30.2861H101.731V29.2495H95.6567V30.2861H98.0952V37H99.2983ZM104.412 37V29.2495H103.208V37H104.412ZM109.853 37L112.608 29.2495H111.33L109.251 35.5605H109.16L107.07 29.2495H105.76L108.531 37H109.853ZM115.165 37V29.2495H113.961V37H115.165ZM120.278 37V30.2861H122.711V29.2495H116.636V30.2861H119.075V37H120.278ZM127.529 37V33.8257L130.263 29.2495H128.925L126.976 32.6279H126.884L124.935 29.2495H123.597L126.326 33.8257V37H127.529ZM139.463 35.9526H135.833V29.2495H134.629V37H139.463V35.9526ZM144.002 29.0615C141.778 29.0615 140.382 30.6245 140.382 33.1221C140.382 35.6143 141.746 37.188 144.002 37.188C146.242 37.188 147.617 35.6089 147.617 33.1221C147.617 30.6299 146.231 29.0615 144.002 29.0615ZM144.002 30.125C145.468 30.125 146.387 31.2852 146.387 33.1221C146.387 34.9429 145.474 36.1245 144.002 36.1245C142.509 36.1245 141.612 34.9429 141.612 33.1221C141.612 31.2852 142.536 30.125 144.002 30.125ZM155.861 33.9492V32.9878H152.682V33.96H154.68V34.1318C154.669 35.3188 153.799 36.1191 152.531 36.1191C151.076 36.1191 150.163 34.9751 150.163 33.1167C150.163 31.2852 151.07 30.1304 152.504 30.1304C153.562 30.1304 154.298 30.6514 154.599 31.6128H155.808C155.544 30.0498 154.266 29.0615 152.504 29.0615C150.334 29.0615 148.933 30.6567 148.933 33.1221C148.933 35.6196 150.318 37.188 152.515 37.188C154.545 37.188 155.861 35.915 155.861 33.9492Z" fill="var(--vscode-tab-activeForeground)"/>
<rect x="36" y="48" width="121" height="1" fill="var(--vscode-panelTitle-activeBorder)"/>
<rect x="181" y="31" width="40" height="6" rx="3" fill="var(--vscode-tab-unfocusedInactiveForeground)"/>
<rect x="245" y="31" width="50" height="6" rx="3" fill="var(--vscode-tab-unfocusedInactiveForeground)"/>
<rect x="319" y="31" width="40" height="6" rx="3" fill="var(--vscode-tab-unfocusedInactiveForeground)"/>
<path d="M82.2871 81.6895C81.9863 81.8496 81.6777 81.9688 81.3613 82.0469C81.0449 82.1289 80.709 82.1699 80.3535 82.1699C79.2324 82.1699 78.3613 81.7734 77.7402 80.9805C77.123 80.1875 76.8145 79.0723 76.8145 77.6348C76.8145 76.2051 77.125 75.0918 77.7461 74.2949C78.3711 73.4941 79.2402 73.0938 80.3535 73.0938C80.709 73.0938 81.0449 73.1348 81.3613 73.2168C81.6777 73.2949 81.9863 73.4141 82.2871 73.5742V74.7871C81.998 74.5488 81.6875 74.3672 81.3555 74.2422C81.0234 74.1172 80.6895 74.0547 80.3535 74.0547C79.584 74.0547 79.0078 74.3516 78.625 74.9453C78.2422 75.5391 78.0508 76.4355 78.0508 77.6348C78.0508 78.8301 78.2422 79.7246 78.625 80.3184C79.0078 80.9121 79.584 81.209 80.3535 81.209C80.6973 81.209 81.0332 81.1465 81.3613 81.0215C81.6934 80.8965 82.002 80.7148 82.2871 80.4766V81.6895ZM89.998 76.791C89.7676 76.6113 89.5332 76.4805 89.2949 76.3984C89.0566 76.3164 88.7949 76.2754 88.5098 76.2754C87.8379 76.2754 87.3242 76.4863 86.9688 76.9082C86.6133 77.3301 86.4355 77.9395 86.4355 78.7363V82H85.3516V75.4375H86.4355V76.7207C86.6152 76.2559 86.8906 75.9004 87.2617 75.6543C87.6367 75.4043 88.0801 75.2793 88.5918 75.2793C88.8574 75.2793 89.1055 75.3125 89.3359 75.3789C89.5664 75.4453 89.7871 75.5488 89.998 75.6895V76.791ZM97.0234 78.1797V78.707H92.3535V78.7422C92.3223 79.6367 92.4922 80.2793 92.8633 80.6699C93.2383 81.0605 93.7656 81.2559 94.4453 81.2559C94.7891 81.2559 95.1484 81.2012 95.5234 81.0918C95.8984 80.9824 96.2988 80.8164 96.7246 80.5938V81.666C96.3145 81.834 95.918 81.959 95.5352 82.041C95.1562 82.127 94.7891 82.1699 94.4336 82.1699C93.4141 82.1699 92.6172 81.8652 92.043 81.2559C91.4688 80.6426 91.1816 79.7988 91.1816 78.7246C91.1816 77.6777 91.4629 76.8418 92.0254 76.2168C92.5879 75.5918 93.3379 75.2793 94.2754 75.2793C95.1113 75.2793 95.7695 75.5625 96.25 76.1289C96.7344 76.6953 96.9922 77.3789 97.0234 78.1797ZM95.9453 77.8633C95.8984 77.4102 95.7324 77.0195 95.4473 76.6914C95.166 76.3594 94.7598 76.1934 94.2285 76.1934C93.709 76.1934 93.2812 76.3652 92.9453 76.709C92.6094 77.0527 92.4258 77.4395 92.3945 77.8691L95.9453 77.8633ZM101.805 78.7012H101.447C100.818 78.7012 100.344 78.8125 100.023 79.0352C99.707 79.2539 99.5488 79.582 99.5488 80.0195C99.5488 80.4141 99.668 80.7207 99.9062 80.9395C100.145 81.1582 100.475 81.2676 100.896 81.2676C101.49 81.2676 101.957 81.0625 102.297 80.6523C102.637 80.2383 102.809 79.668 102.812 78.9414V78.7012H101.805ZM103.896 78.2559V82H102.812V81.0273C102.582 81.418 102.291 81.707 101.939 81.8945C101.592 82.0781 101.168 82.1699 100.668 82.1699C100 82.1699 99.4668 81.9824 99.0684 81.6074C98.6699 81.2285 98.4707 80.7227 98.4707 80.0898C98.4707 79.3594 98.7148 78.8047 99.2031 78.4258C99.6953 78.0469 100.416 77.8574 101.365 77.8574H102.812V77.6875C102.809 77.1641 102.676 76.7852 102.414 76.5508C102.152 76.3125 101.734 76.1934 101.16 76.1934C100.793 76.1934 100.422 76.2461 100.047 76.3516C99.6719 76.457 99.3066 76.6113 98.9512 76.8145V75.7363C99.3496 75.584 99.7305 75.4707 100.094 75.3965C100.461 75.3184 100.816 75.2793 101.16 75.2793C101.703 75.2793 102.166 75.3594 102.549 75.5195C102.936 75.6797 103.248 75.9199 103.486 76.2402C103.635 76.4355 103.74 76.6777 103.803 76.9668C103.865 77.252 103.896 77.6816 103.896 78.2559ZM108.52 73.5742V75.4375H110.969V76.2754H108.52V79.8379C108.52 80.3223 108.611 80.6602 108.795 80.8516C108.979 81.043 109.299 81.1387 109.756 81.1387H110.969V82H109.65C108.842 82 108.271 81.8379 107.939 81.5137C107.607 81.1895 107.441 80.6309 107.441 79.8379V76.2754H105.689V75.4375H107.441V73.5742H108.52ZM118.715 78.1797V78.707H114.045V78.7422C114.014 79.6367 114.184 80.2793 114.555 80.6699C114.93 81.0605 115.457 81.2559 116.137 81.2559C116.48 81.2559 116.84 81.2012 117.215 81.0918C117.59 80.9824 117.99 80.8164 118.416 80.5938V81.666C118.006 81.834 117.609 81.959 117.227 82.041C116.848 82.127 116.48 82.1699 116.125 82.1699C115.105 82.1699 114.309 81.8652 113.734 81.2559C113.16 80.6426 112.873 79.7988 112.873 78.7246C112.873 77.6777 113.154 76.8418 113.717 76.2168C114.279 75.5918 115.029 75.2793 115.967 75.2793C116.803 75.2793 117.461 75.5625 117.941 76.1289C118.426 76.6953 118.684 77.3789 118.715 78.1797ZM117.637 77.8633C117.59 77.4102 117.424 77.0195 117.139 76.6914C116.857 76.3594 116.451 76.1934 115.92 76.1934C115.4 76.1934 114.973 76.3652 114.637 76.709C114.301 77.0527 114.117 77.4395 114.086 77.8691L117.637 77.8633ZM126.613 75.4375H127.68L128.822 80.7402L129.76 77.3535H130.68L131.629 80.7402L132.771 75.4375H133.838L132.303 82H131.271L130.223 78.4023L129.18 82H128.148L126.613 75.4375ZM140.406 78.1797V78.707H135.736V78.7422C135.705 79.6367 135.875 80.2793 136.246 80.6699C136.621 81.0605 137.148 81.2559 137.828 81.2559C138.172 81.2559 138.531 81.2012 138.906 81.0918C139.281 80.9824 139.682 80.8164 140.107 80.5938V81.666C139.697 81.834 139.301 81.959 138.918 82.041C138.539 82.127 138.172 82.1699 137.816 82.1699C136.797 82.1699 136 81.8652 135.426 81.2559C134.852 80.6426 134.564 79.7988 134.564 78.7246C134.564 77.6777 134.846 76.8418 135.408 76.2168C135.971 75.5918 136.721 75.2793 137.658 75.2793C138.494 75.2793 139.152 75.5625 139.633 76.1289C140.117 76.6953 140.375 77.3789 140.406 78.1797ZM139.328 77.8633C139.281 77.4102 139.115 77.0195 138.83 76.6914C138.549 76.3594 138.143 76.1934 137.611 76.1934C137.092 76.1934 136.664 76.3652 136.328 76.709C135.992 77.0527 135.809 77.4395 135.777 77.8691L139.328 77.8633ZM146.453 78.7246C146.453 77.8887 146.32 77.2578 146.055 76.832C145.789 76.4062 145.396 76.1934 144.877 76.1934C144.354 76.1934 143.957 76.4082 143.688 76.8379C143.418 77.2637 143.283 77.8926 143.283 78.7246C143.283 79.5527 143.418 80.1816 143.688 80.6113C143.957 81.041 144.354 81.2559 144.877 81.2559C145.396 81.2559 145.789 81.043 146.055 80.6172C146.32 80.1914 146.453 79.5605 146.453 78.7246ZM143.283 76.2754C143.455 75.9551 143.691 75.709 143.992 75.5371C144.297 75.3652 144.648 75.2793 145.047 75.2793C145.836 75.2793 146.457 75.584 146.91 76.1934C147.363 76.7988 147.59 77.6348 147.59 78.7012C147.59 79.7832 147.361 80.6328 146.904 81.25C146.451 81.8633 145.828 82.1699 145.035 82.1699C144.645 82.1699 144.299 82.0859 143.998 81.918C143.701 81.7461 143.463 81.498 143.283 81.1738V82H142.205V72.8828H143.283V76.2754ZM159.648 78.7012H159.291C158.662 78.7012 158.188 78.8125 157.867 79.0352C157.551 79.2539 157.393 79.582 157.393 80.0195C157.393 80.4141 157.512 80.7207 157.75 80.9395C157.988 81.1582 158.318 81.2676 158.74 81.2676C159.334 81.2676 159.801 81.0625 160.141 80.6523C160.48 80.2383 160.652 79.668 160.656 78.9414V78.7012H159.648ZM161.74 78.2559V82H160.656V81.0273C160.426 81.418 160.135 81.707 159.783 81.8945C159.436 82.0781 159.012 82.1699 158.512 82.1699C157.844 82.1699 157.311 81.9824 156.912 81.6074C156.514 81.2285 156.314 80.7227 156.314 80.0898C156.314 79.3594 156.559 78.8047 157.047 78.4258C157.539 78.0469 158.26 77.8574 159.209 77.8574H160.656V77.6875C160.652 77.1641 160.52 76.7852 160.258 76.5508C159.996 76.3125 159.578 76.1934 159.004 76.1934C158.637 76.1934 158.266 76.2461 157.891 76.3516C157.516 76.457 157.15 76.6113 156.795 76.8145V75.7363C157.193 75.584 157.574 75.4707 157.938 75.3965C158.305 75.3184 158.66 75.2793 159.004 75.2793C159.547 75.2793 160.01 75.3594 160.393 75.5195C160.779 75.6797 161.092 75.9199 161.33 76.2402C161.479 76.4355 161.584 76.6777 161.646 76.9668C161.709 77.252 161.74 77.6816 161.74 78.2559ZM164.963 81.1738V84.4961H163.879V75.4375H164.963V76.2754C165.143 75.9512 165.381 75.7051 165.678 75.5371C165.979 75.3652 166.324 75.2793 166.715 75.2793C167.508 75.2793 168.129 75.5859 168.578 76.1992C169.031 76.8125 169.258 77.6621 169.258 78.748C169.258 79.8145 169.031 80.6523 168.578 81.2617C168.125 81.8672 167.504 82.1699 166.715 82.1699C166.316 82.1699 165.967 82.0859 165.666 81.918C165.369 81.7461 165.135 81.498 164.963 81.1738ZM168.127 78.7246C168.127 77.8887 167.994 77.2578 167.729 76.832C167.467 76.4062 167.076 76.1934 166.557 76.1934C166.033 76.1934 165.637 76.4082 165.367 76.8379C165.098 77.2637 164.963 77.8926 164.963 78.7246C164.963 79.5527 165.098 80.1816 165.367 80.6113C165.637 81.041 166.033 81.2559 166.557 81.2559C167.076 81.2559 167.467 81.043 167.729 80.6172C167.994 80.1914 168.127 79.5605 168.127 78.7246ZM172.193 81.1738V84.4961H171.109V75.4375H172.193V76.2754C172.373 75.9512 172.611 75.7051 172.908 75.5371C173.209 75.3652 173.555 75.2793 173.945 75.2793C174.738 75.2793 175.359 75.5859 175.809 76.1992C176.262 76.8125 176.488 77.6621 176.488 78.748C176.488 79.8145 176.262 80.6523 175.809 81.2617C175.355 81.8672 174.734 82.1699 173.945 82.1699C173.547 82.1699 173.197 82.0859 172.896 81.918C172.6 81.7461 172.365 81.498 172.193 81.1738ZM175.357 78.7246C175.357 77.8887 175.225 77.2578 174.959 76.832C174.697 76.4062 174.307 76.1934 173.787 76.1934C173.264 76.1934 172.867 76.4082 172.598 76.8379C172.328 77.2637 172.193 77.8926 172.193 78.7246C172.193 79.5527 172.328 80.1816 172.598 80.6113C172.867 81.041 173.264 81.2559 173.787 81.2559C174.307 81.2559 174.697 81.043 174.959 80.6172C175.225 80.1914 175.357 79.5605 175.357 78.7246ZM189.871 76.334H188.395V75.1211L189.543 72.8828H190.445L189.871 75.1211V76.334ZM187.182 76.334H185.693V75.1211L186.859 72.8828H187.756L187.182 75.1211V76.334ZM197.904 81.666C197.615 81.834 197.316 81.959 197.008 82.041C196.703 82.127 196.391 82.1699 196.07 82.1699C195.055 82.1699 194.26 81.8652 193.686 81.2559C193.115 80.6465 192.83 79.8027 192.83 78.7246C192.83 77.6465 193.115 76.8027 193.686 76.1934C194.26 75.584 195.055 75.2793 196.07 75.2793C196.387 75.2793 196.695 75.3203 196.996 75.4023C197.297 75.4844 197.6 75.6113 197.904 75.7832V76.9141C197.619 76.6602 197.332 76.4766 197.043 76.3633C196.758 76.25 196.434 76.1934 196.07 76.1934C195.395 76.1934 194.875 76.4121 194.512 76.8496C194.148 77.2871 193.967 77.9121 193.967 78.7246C193.967 79.5332 194.148 80.1582 194.512 80.5996C194.879 81.0371 195.398 81.2559 196.07 81.2559C196.445 81.2559 196.781 81.1992 197.078 81.0859C197.375 80.9688 197.65 80.7891 197.904 80.5469V81.666ZM202.527 76.1934C201.98 76.1934 201.566 76.4062 201.285 76.832C201.004 77.2578 200.863 77.8887 200.863 78.7246C200.863 79.5566 201.004 80.1875 201.285 80.6172C201.566 81.043 201.98 81.2559 202.527 81.2559C203.078 81.2559 203.494 81.043 203.775 80.6172C204.057 80.1875 204.197 79.5566 204.197 78.7246C204.197 77.8887 204.057 77.2578 203.775 76.832C203.494 76.4062 203.078 76.1934 202.527 76.1934ZM202.527 75.2793C203.438 75.2793 204.133 75.5742 204.613 76.1641C205.098 76.7539 205.34 77.6074 205.34 78.7246C205.34 79.8457 205.1 80.7012 204.619 81.291C204.139 81.877 203.441 82.1699 202.527 82.1699C201.617 82.1699 200.922 81.877 200.441 81.291C199.961 80.7012 199.721 79.8457 199.721 78.7246C199.721 77.6074 199.961 76.7539 200.441 76.1641C200.922 75.5742 201.617 75.2793 202.527 75.2793ZM212.307 77.9336V82H211.223V77.9336C211.223 77.3438 211.119 76.9102 210.912 76.6328C210.705 76.3555 210.381 76.2168 209.939 76.2168C209.436 76.2168 209.047 76.3965 208.773 76.7559C208.504 77.1113 208.369 77.623 208.369 78.291V82H207.291V75.4375H208.369V76.4219C208.561 76.0469 208.82 75.7637 209.148 75.5723C209.477 75.377 209.865 75.2793 210.314 75.2793C210.982 75.2793 211.48 75.5 211.809 75.9414C212.141 76.3789 212.307 77.043 212.307 77.9336ZM216.977 73.5742V75.4375H219.426V76.2754H216.977V79.8379C216.977 80.3223 217.068 80.6602 217.252 80.8516C217.436 81.043 217.756 81.1387 218.213 81.1387H219.426V82H218.107C217.299 82 216.729 81.8379 216.396 81.5137C216.064 81.1895 215.898 80.6309 215.898 79.8379V76.2754H214.146V75.4375H215.898V73.5742H216.977ZM224.219 76.1934C223.672 76.1934 223.258 76.4062 222.977 76.832C222.695 77.2578 222.555 77.8887 222.555 78.7246C222.555 79.5566 222.695 80.1875 222.977 80.6172C223.258 81.043 223.672 81.2559 224.219 81.2559C224.77 81.2559 225.186 81.043 225.467 80.6172C225.748 80.1875 225.889 79.5566 225.889 78.7246C225.889 77.8887 225.748 77.2578 225.467 76.832C225.186 76.4062 224.77 76.1934 224.219 76.1934ZM224.219 75.2793C225.129 75.2793 225.824 75.5742 226.305 76.1641C226.789 76.7539 227.031 77.6074 227.031 78.7246C227.031 79.8457 226.791 80.7012 226.311 81.291C225.83 81.877 225.133 82.1699 224.219 82.1699C223.309 82.1699 222.613 81.877 222.133 81.291C221.652 80.7012 221.412 79.8457 221.412 78.7246C221.412 77.6074 221.652 76.7539 222.133 76.1641C222.613 75.5742 223.309 75.2793 224.219 75.2793ZM233.541 75.666V76.7207C233.232 76.541 232.922 76.4062 232.609 76.3164C232.297 76.2266 231.979 76.1816 231.654 76.1816C231.166 76.1816 230.801 76.2617 230.559 76.4219C230.32 76.5781 230.201 76.8184 230.201 77.1426C230.201 77.4355 230.291 77.6543 230.471 77.7988C230.65 77.9434 231.098 78.084 231.812 78.2207L232.246 78.3027C232.781 78.4043 233.186 78.6074 233.459 78.9121C233.736 79.2168 233.875 79.6133 233.875 80.1016C233.875 80.75 233.645 81.2578 233.184 81.625C232.723 81.9883 232.082 82.1699 231.262 82.1699C230.938 82.1699 230.598 82.1348 230.242 82.0645C229.887 81.998 229.502 81.8965 229.088 81.7598V80.6465C229.49 80.8535 229.875 81.0098 230.242 81.1152C230.609 81.2168 230.957 81.2676 231.285 81.2676C231.762 81.2676 232.131 81.1719 232.393 80.9805C232.654 80.7852 232.785 80.5137 232.785 80.166C232.785 79.666 232.307 79.3203 231.35 79.1289L231.303 79.1172L230.898 79.0352C230.277 78.9141 229.824 78.7109 229.539 78.4258C229.254 78.1367 229.111 77.7441 229.111 77.248C229.111 76.6191 229.324 76.1348 229.75 75.7949C230.176 75.4512 230.783 75.2793 231.572 75.2793C231.924 75.2793 232.262 75.3125 232.586 75.3789C232.91 75.4414 233.229 75.5371 233.541 75.666ZM238.68 76.1934C238.133 76.1934 237.719 76.4062 237.438 76.832C237.156 77.2578 237.016 77.8887 237.016 78.7246C237.016 79.5566 237.156 80.1875 237.438 80.6172C237.719 81.043 238.133 81.2559 238.68 81.2559C239.23 81.2559 239.646 81.043 239.928 80.6172C240.209 80.1875 240.35 79.5566 240.35 78.7246C240.35 77.8887 240.209 77.2578 239.928 76.832C239.646 76.4062 239.23 76.1934 238.68 76.1934ZM238.68 75.2793C239.59 75.2793 240.285 75.5742 240.766 76.1641C241.25 76.7539 241.492 77.6074 241.492 78.7246C241.492 79.8457 241.252 80.7012 240.771 81.291C240.291 81.877 239.594 82.1699 238.68 82.1699C237.77 82.1699 237.074 81.877 236.594 81.291C236.113 80.7012 235.873 79.8457 235.873 78.7246C235.873 77.6074 236.113 76.7539 236.594 76.1641C237.074 75.5742 237.77 75.2793 238.68 75.2793ZM242.898 77.7578H249.109V78.748H242.898V77.7578ZM253.645 78.7012H253.287C252.658 78.7012 252.184 78.8125 251.863 79.0352C251.547 79.2539 251.389 79.582 251.389 80.0195C251.389 80.4141 251.508 80.7207 251.746 80.9395C251.984 81.1582 252.314 81.2676 252.736 81.2676C253.33 81.2676 253.797 81.0625 254.137 80.6523C254.477 80.2383 254.648 79.668 254.652 78.9414V78.7012H253.645ZM255.736 78.2559V82H254.652V81.0273C254.422 81.418 254.131 81.707 253.779 81.8945C253.432 82.0781 253.008 82.1699 252.508 82.1699C251.84 82.1699 251.307 81.9824 250.908 81.6074C250.51 81.2285 250.311 80.7227 250.311 80.0898C250.311 79.3594 250.555 78.8047 251.043 78.4258C251.535 78.0469 252.256 77.8574 253.205 77.8574H254.652V77.6875C254.648 77.1641 254.516 76.7852 254.254 76.5508C253.992 76.3125 253.574 76.1934 253 76.1934C252.633 76.1934 252.262 76.2461 251.887 76.3516C251.512 76.457 251.146 76.6113 250.791 76.8145V75.7363C251.189 75.584 251.57 75.4707 251.934 75.3965C252.301 75.3184 252.656 75.2793 253 75.2793C253.543 75.2793 254.006 75.3594 254.389 75.5195C254.775 75.6797 255.088 75.9199 255.326 76.2402C255.475 76.4355 255.58 76.6777 255.643 76.9668C255.705 77.252 255.736 77.6816 255.736 78.2559ZM258.959 81.1738V84.4961H257.875V75.4375H258.959V76.2754C259.139 75.9512 259.377 75.7051 259.674 75.5371C259.975 75.3652 260.32 75.2793 260.711 75.2793C261.504 75.2793 262.125 75.5859 262.574 76.1992C263.027 76.8125 263.254 77.6621 263.254 78.748C263.254 79.8145 263.027 80.6523 262.574 81.2617C262.121 81.8672 261.5 82.1699 260.711 82.1699C260.312 82.1699 259.963 82.0859 259.662 81.918C259.365 81.7461 259.131 81.498 258.959 81.1738ZM262.123 78.7246C262.123 77.8887 261.99 77.2578 261.725 76.832C261.463 76.4062 261.072 76.1934 260.553 76.1934C260.029 76.1934 259.633 76.4082 259.363 76.8379C259.094 77.2637 258.959 77.8926 258.959 78.7246C258.959 79.5527 259.094 80.1816 259.363 80.6113C259.633 81.041 260.029 81.2559 260.553 81.2559C261.072 81.2559 261.463 81.043 261.725 80.6172C261.99 80.1914 262.123 79.5605 262.123 78.7246ZM266.189 81.1738V84.4961H265.105V75.4375H266.189V76.2754C266.369 75.9512 266.607 75.7051 266.904 75.5371C267.205 75.3652 267.551 75.2793 267.941 75.2793C268.734 75.2793 269.355 75.5859 269.805 76.1992C270.258 76.8125 270.484 77.6621 270.484 78.748C270.484 79.8145 270.258 80.6523 269.805 81.2617C269.352 81.8672 268.73 82.1699 267.941 82.1699C267.543 82.1699 267.193 82.0859 266.893 81.918C266.596 81.7461 266.361 81.498 266.189 81.1738ZM269.354 78.7246C269.354 77.8887 269.221 77.2578 268.955 76.832C268.693 76.4062 268.303 76.1934 267.783 76.1934C267.26 76.1934 266.863 76.4082 266.594 76.8379C266.324 77.2637 266.189 77.8926 266.189 78.7246C266.189 79.5527 266.324 80.1816 266.594 80.6113C266.863 81.041 267.26 81.2559 267.783 81.2559C268.303 81.2559 268.693 81.043 268.955 80.6172C269.221 80.1914 269.354 79.5605 269.354 78.7246ZM275.723 72.8828H277.199V74.0898L276.045 76.334H275.148L275.723 74.0898V72.8828ZM273.033 72.8828H274.51V74.0898L273.361 76.334H272.459L273.033 74.0898V72.8828ZM280.732 79.6328H282.795V82H280.732V79.6328ZM287.963 79.6328H290.025V82H287.963V79.6328ZM295.193 79.6328H297.256V82H295.193V79.6328ZM313.305 73.5508V74.752C312.945 74.5215 312.584 74.3477 312.221 74.2305C311.861 74.1133 311.498 74.0547 311.131 74.0547C310.572 74.0547 310.131 74.1855 309.807 74.4473C309.482 74.7051 309.32 75.0547 309.32 75.4961C309.32 75.8828 309.426 76.1777 309.637 76.3809C309.852 76.584 310.25 76.7539 310.832 76.8906L311.453 77.0312C312.273 77.2227 312.871 77.5234 313.246 77.9336C313.621 78.3438 313.809 78.9023 313.809 79.6094C313.809 80.4414 313.551 81.0762 313.035 81.5137C312.52 81.9512 311.77 82.1699 310.785 82.1699C310.375 82.1699 309.963 82.125 309.549 82.0352C309.135 81.9492 308.719 81.8184 308.301 81.6426V80.3828C308.75 80.668 309.174 80.877 309.572 81.0098C309.975 81.1426 310.379 81.209 310.785 81.209C311.383 81.209 311.848 81.0762 312.18 80.8105C312.512 80.541 312.678 80.166 312.678 79.6855C312.678 79.248 312.562 78.9141 312.332 78.6836C312.105 78.4531 311.709 78.2754 311.143 78.1504L310.51 78.0039C309.697 77.8203 309.107 77.543 308.74 77.1719C308.373 76.8008 308.189 76.3027 308.189 75.6777C308.189 74.8965 308.451 74.2715 308.975 73.8027C309.502 73.3301 310.201 73.0938 311.072 73.0938C311.408 73.0938 311.762 73.1328 312.133 73.2109C312.504 73.2852 312.895 73.3984 313.305 73.5508ZM315.748 79.5156V75.4492H316.826V79.5156C316.826 80.1055 316.93 80.5391 317.137 80.8164C317.348 81.0938 317.672 81.2324 318.109 81.2324C318.617 81.2324 319.006 81.0547 319.275 80.6992C319.545 80.3398 319.68 79.8262 319.68 79.1582V75.4492H320.764V82H319.68V81.0156C319.488 81.3945 319.227 81.6816 318.895 81.877C318.566 82.0723 318.182 82.1699 317.74 82.1699C317.068 82.1699 316.568 81.9512 316.24 81.5137C315.912 81.0723 315.748 80.4062 315.748 79.5156ZM328.053 81.666C327.764 81.834 327.465 81.959 327.156 82.041C326.852 82.127 326.539 82.1699 326.219 82.1699C325.203 82.1699 324.408 81.8652 323.834 81.2559C323.264 80.6465 322.979 79.8027 322.979 78.7246C322.979 77.6465 323.264 76.8027 323.834 76.1934C324.408 75.584 325.203 75.2793 326.219 75.2793C326.535 75.2793 326.844 75.3203 327.145 75.4023C327.445 75.4844 327.748 75.6113 328.053 75.7832V76.9141C327.768 76.6602 327.48 76.4766 327.191 76.3633C326.906 76.25 326.582 76.1934 326.219 76.1934C325.543 76.1934 325.023 76.4121 324.66 76.8496C324.297 77.2871 324.115 77.9121 324.115 78.7246C324.115 79.5332 324.297 80.1582 324.66 80.5996C325.027 81.0371 325.547 81.2559 326.219 81.2559C326.594 81.2559 326.93 81.1992 327.227 81.0859C327.523 80.9688 327.799 80.7891 328.053 80.5469V81.666ZM335.283 81.666C334.994 81.834 334.695 81.959 334.387 82.041C334.082 82.127 333.77 82.1699 333.449 82.1699C332.434 82.1699 331.639 81.8652 331.064 81.2559C330.494 80.6465 330.209 79.8027 330.209 78.7246C330.209 77.6465 330.494 76.8027 331.064 76.1934C331.639 75.584 332.434 75.2793 333.449 75.2793C333.766 75.2793 334.074 75.3203 334.375 75.4023C334.676 75.4844 334.979 75.6113 335.283 75.7832V76.9141C334.998 76.6602 334.711 76.4766 334.422 76.3633C334.137 76.25 333.812 76.1934 333.449 76.1934C332.773 76.1934 332.254 76.4121 331.891 76.8496C331.527 77.2871 331.346 77.9121 331.346 78.7246C331.346 79.5332 331.527 80.1582 331.891 80.5996C332.258 81.0371 332.777 81.2559 333.449 81.2559C333.824 81.2559 334.16 81.1992 334.457 81.0859C334.754 80.9688 335.029 80.7891 335.283 80.5469V81.666ZM342.859 78.1797V78.707H338.189V78.7422C338.158 79.6367 338.328 80.2793 338.699 80.6699C339.074 81.0605 339.602 81.2559 340.281 81.2559C340.625 81.2559 340.984 81.2012 341.359 81.0918C341.734 80.9824 342.135 80.8164 342.561 80.5938V81.666C342.15 81.834 341.754 81.959 341.371 82.041C340.992 82.127 340.625 82.1699 340.27 82.1699C339.25 82.1699 338.453 81.8652 337.879 81.2559C337.305 80.6426 337.018 79.7988 337.018 78.7246C337.018 77.6777 337.299 76.8418 337.861 76.2168C338.424 75.5918 339.174 75.2793 340.111 75.2793C340.947 75.2793 341.605 75.5625 342.086 76.1289C342.57 76.6953 342.828 77.3789 342.859 78.1797ZM341.781 77.8633C341.734 77.4102 341.568 77.0195 341.283 76.6914C341.002 76.3594 340.596 76.1934 340.064 76.1934C339.545 76.1934 339.117 76.3652 338.781 76.709C338.445 77.0527 338.262 77.4395 338.23 77.8691L341.781 77.8633ZM350.09 78.1797V78.707H345.42V78.7422C345.389 79.6367 345.559 80.2793 345.93 80.6699C346.305 81.0605 346.832 81.2559 347.512 81.2559C347.855 81.2559 348.215 81.2012 348.59 81.0918C348.965 80.9824 349.365 80.8164 349.791 80.5938V81.666C349.381 81.834 348.984 81.959 348.602 82.041C348.223 82.127 347.855 82.1699 347.5 82.1699C346.48 82.1699 345.684 81.8652 345.109 81.2559C344.535 80.6426 344.248 79.7988 344.248 78.7246C344.248 77.6777 344.529 76.8418 345.092 76.2168C345.654 75.5918 346.404 75.2793 347.342 75.2793C348.178 75.2793 348.836 75.5625 349.316 76.1289C349.801 76.6953 350.059 77.3789 350.09 78.1797ZM349.012 77.8633C348.965 77.4102 348.799 77.0195 348.514 76.6914C348.232 76.3594 347.826 76.1934 347.295 76.1934C346.775 76.1934 346.348 76.3652 346.012 76.709C345.676 77.0527 345.492 77.4395 345.461 77.8691L349.012 77.8633ZM355.785 76.2754V72.8828H356.863V82H355.785V81.1738C355.605 81.498 355.365 81.7461 355.064 81.918C354.768 82.0859 354.424 82.1699 354.033 82.1699C353.24 82.1699 352.615 81.8633 352.158 81.25C351.705 80.6328 351.479 79.7832 351.479 78.7012C351.479 77.6348 351.707 76.7988 352.164 76.1934C352.621 75.584 353.244 75.2793 354.033 75.2793C354.428 75.2793 354.775 75.3652 355.076 75.5371C355.377 75.7051 355.613 75.9512 355.785 76.2754ZM352.615 78.7246C352.615 79.5605 352.748 80.1914 353.014 80.6172C353.279 81.043 353.672 81.2559 354.191 81.2559C354.711 81.2559 355.105 81.041 355.375 80.6113C355.648 80.1816 355.785 79.5527 355.785 78.7246C355.785 77.8926 355.648 77.2637 355.375 76.8379C355.105 76.4082 354.711 76.1934 354.191 76.1934C353.672 76.1934 353.279 76.4062 353.014 76.832C352.748 77.2578 352.615 77.8887 352.615 78.7246ZM364.551 78.1797V78.707H359.881V78.7422C359.85 79.6367 360.02 80.2793 360.391 80.6699C360.766 81.0605 361.293 81.2559 361.973 81.2559C362.316 81.2559 362.676 81.2012 363.051 81.0918C363.426 80.9824 363.826 80.8164 364.252 80.5938V81.666C363.842 81.834 363.445 81.959 363.062 82.041C362.684 82.127 362.316 82.1699 361.961 82.1699C360.941 82.1699 360.145 81.8652 359.57 81.2559C358.996 80.6426 358.709 79.7988 358.709 78.7246C358.709 77.6777 358.99 76.8418 359.553 76.2168C360.115 75.5918 360.865 75.2793 361.803 75.2793C362.639 75.2793 363.297 75.5625 363.777 76.1289C364.262 76.6953 364.52 77.3789 364.551 78.1797ZM363.473 77.8633C363.426 77.4102 363.26 77.0195 362.975 76.6914C362.693 76.3594 362.287 76.1934 361.756 76.1934C361.236 76.1934 360.809 76.3652 360.473 76.709C360.137 77.0527 359.953 77.4395 359.922 77.8691L363.473 77.8633ZM370.246 76.2754V72.8828H371.324V82H370.246V81.1738C370.066 81.498 369.826 81.7461 369.525 81.918C369.229 82.0859 368.885 82.1699 368.494 82.1699C367.701 82.1699 367.076 81.8633 366.619 81.25C366.166 80.6328 365.939 79.7832 365.939 78.7012C365.939 77.6348 366.168 76.7988 366.625 76.1934C367.082 75.584 367.705 75.2793 368.494 75.2793C368.889 75.2793 369.236 75.3652 369.537 75.5371C369.838 75.7051 370.074 75.9512 370.246 76.2754ZM367.076 78.7246C367.076 79.5605 367.209 80.1914 367.475 80.6172C367.74 81.043 368.133 81.2559 368.652 81.2559C369.172 81.2559 369.566 81.041 369.836 80.6113C370.109 80.1816 370.246 79.5527 370.246 78.7246C370.246 77.8926 370.109 77.2637 369.836 76.8379C369.566 76.4082 369.172 76.1934 368.652 76.1934C368.133 76.1934 367.74 76.4062 367.475 76.832C367.209 77.2578 367.076 77.8887 367.076 78.7246Z" fill="var(--vscode-foreground)"/>
<path d="M44.82 78.014L40.998 74.206L41.544 73.66L45.632 77.748V78.294L41.544 82.368L40.998 81.836L44.82 78.028V78.014Z" fill="var(--vscode-foreground)"/>
<path d="M63.488 80.506H64.104L68.094 76.516L67.478 75.9L63.796 79.582L62.116 77.902L61.5 78.518L63.488 80.506ZM65.532 71.868C66.204 71.9147 66.8667 72.1013 67.52 72.428C68.136 72.7267 68.696 73.1233 69.2 73.618C70.3667 74.878 70.95 76.3667 70.95 78.084C70.95 78.7747 70.824 79.4513 70.572 80.114C70.3387 80.7487 69.998 81.3553 69.55 81.934C69.102 82.4753 68.584 82.9233 67.996 83.278C67.38 83.6513 66.7313 83.9033 66.05 84.034C65.3313 84.174 64.6407 84.1927 63.978 84.09C63.278 83.9873 62.6293 83.768 62.032 83.432C61.4067 83.068 60.8607 82.6293 60.394 82.116C59.9367 81.5933 59.5727 81.0053 59.302 80.352C59.0407 79.6987 58.8913 79.0127 58.854 78.294C58.826 77.5753 58.9193 76.894 59.134 76.25C59.5913 74.794 60.408 73.6833 61.584 72.918C62.144 72.5353 62.7647 72.2553 63.446 72.078C64.1273 71.9007 64.8227 71.8307 65.532 71.868ZM65.966 83.166C66.5447 83.026 67.0813 82.8067 67.576 82.508C68.0987 82.1907 68.5513 81.794 68.934 81.318C69.3073 80.814 69.5827 80.296 69.76 79.764C69.956 79.176 70.0307 78.588 69.984 78C69.984 77.2907 69.8533 76.6047 69.592 75.942C69.34 75.2793 68.976 74.71 68.5 74.234C67.5947 73.3287 66.5447 72.834 65.35 72.75C64.762 72.7033 64.188 72.75 63.628 72.89C63.0213 73.0393 62.4847 73.282 62.018 73.618C61.0193 74.346 60.352 75.312 60.016 76.516C59.8293 77.104 59.75 77.6873 59.778 78.266C59.7967 78.882 59.932 79.4653 60.184 80.016C60.716 81.1547 61.5047 82.0273 62.55 82.634C63.0727 82.942 63.628 83.1427 64.216 83.236C64.804 83.32 65.3873 83.2967 65.966 83.166Z" fill="var(--vscode-terminal-ansiBrightGreen)"/>
<path d="M508.12 33L503.56 37.56L504.44 38.44L509 33.88L513.56 38.44L514.44 37.56L509.88 33L514.44 28.44L513.56 27.56L509 32.12L504.44 27.56L503.56 28.44L508.12 33Z" fill="var(--vscode-foreground)"/>
<path d="M483.016 30.92L478.664 35.288L478.04 34.664L482.712 29.992H483.336L488.008 34.664L487.384 35.288L483.032 30.92H483.016Z" fill="var(--vscode-foreground)"/>
<path d="M459 38.592L459.704 39.296L461.304 37.696L462.904 39.296L463.704 38.592L462.008 36.992L463.704 35.392L462.904 34.592L461.304 36.304L459.704 34.592L459 35.392L460.6 36.992L459 38.592ZM450.008 30H464.008V28.992H450.008V30ZM450.008 32.992H464.008V32H450.008V32.992ZM458.008 35.504V34.992H450.008V36H458.008V35.504ZM458.008 38.992V38H450.008V38.992H458.008Z" fill="var(--vscode-foreground)"/>
</g>
<defs>
<filter id="filter0_d_12_14097" x="0" y="0" width="552" height="287" filterUnits="userSpaceOnUse" color-interpolation-filters="sRGB">
<feFlood flood-opacity="0" result="BackgroundImageFix"/>
<feColorMatrix in="SourceAlpha" type="matrix" values="0 0 0 0 0 0 0 0 0 0 0 0 0 0 0 0 0 0 127 0" result="hardAlpha"/>
<feOffset dy="2"/>
<feGaussianBlur stdDeviation="8"/>
<feColorMatrix type="matrix" values="0 0 0 0 0 0 0 0 0 0 0 0 0 0 0 0 0 0 0.36 0"/>
<feBlend mode="normal" in2="BackgroundImageFix" result="effect1_dropShadow_12_14097"/>
<feBlend mode="normal" in="SourceGraphic" in2="effect1_dropShadow_12_14097" result="shape"/>
</filter>
</defs>
</svg>
