<svg width="520" height="342" viewBox="0 0 520 342" fill="none" xmlns="http://www.w3.org/2000/svg">
<rect width="520" height="342" fill="var(--vscode-editor-background, #1e1e1e)"/>
<rect width="520" height="39" fill="var(--vscode-editorGroupHeader-tabsBackground, #252526)"/>
<g clip-path="url(#clip0_66_49866)">
<rect width="115.654" height="39.2998" fill="var(--vscode-tab-activeBackground, #1e1e1e)"/>
<rect x="13.4746" y="15.7199" width="88.7052" height="7.85995" rx="3.92998" fill="var(--vscode-tab-unfocusedInactiveForeground, #454545)"/>
</g>
<g filter="url(#filter0_d_66_49866)">
<rect width="425" height="248" transform="translate(48 20)" fill="var(--vscode-quickInput-background, #252526)"/>
<rect x="55.5" y="27.5" width="410" height="25" fill="var(--vscode-input-background, #3c3c3c)"/>
<path d="M60.7173 42.5562C60.8188 44.1812 62.1836 45.2222 64.2148 45.2222C66.3857 45.2222 67.7441 44.1304 67.7441 42.3975C67.7441 41.0264 66.9697 40.271 65.0908 39.8203L64.0815 39.5728C62.8882 39.2808 62.4058 38.8999 62.4058 38.2334C62.4058 37.3765 63.1548 36.8242 64.2783 36.8242C65.3447 36.8242 66.0811 37.3574 66.2144 38.2271H67.5981C67.5156 36.6973 66.1572 35.6182 64.2974 35.6182C62.2979 35.6182 60.9648 36.6973 60.9648 38.3096C60.9648 39.6426 61.7202 40.4297 63.377 40.8296L64.5576 41.1152C65.77 41.4072 66.3032 41.8516 66.3032 42.5688C66.3032 43.4067 65.4653 44.0098 64.3228 44.0098C63.0977 44.0098 62.2471 43.4448 62.1265 42.5562H60.7173ZM73.9902 43.1528C73.7363 43.7114 73.1714 44.0161 72.3462 44.0161C71.2544 44.0161 70.5498 43.229 70.5054 41.9785V41.915H75.3867V41.4453C75.3867 39.2871 74.2251 37.9731 72.3018 37.9731C70.353 37.9731 69.1152 39.376 69.1152 41.5659C69.1152 43.7686 70.3276 45.1333 72.3081 45.1333C73.8887 45.1333 75.0059 44.3716 75.3042 43.1528H73.9902ZM72.2954 39.084C73.3047 39.084 73.9648 39.814 73.9966 40.9312H70.5054C70.5815 39.8203 71.2861 39.084 72.2954 39.084ZM77.0879 45H78.4526V35.4023H77.0879V45ZM85.0352 43.1528C84.7812 43.7114 84.2163 44.0161 83.3911 44.0161C82.2993 44.0161 81.5947 43.229 81.5503 41.9785V41.915H86.4316V41.4453C86.4316 39.2871 85.27 37.9731 83.3467 37.9731C81.3979 37.9731 80.1602 39.376 80.1602 41.5659C80.1602 43.7686 81.3726 45.1333 83.353 45.1333C84.9336 45.1333 86.0508 44.3716 86.3491 43.1528H85.0352ZM83.3403 39.084C84.3496 39.084 85.0098 39.814 85.0415 40.9312H81.5503C81.6265 39.8203 82.3311 39.084 83.3403 39.084ZM93.9219 40.3218C93.7441 38.9824 92.6968 37.9731 90.9639 37.9731C88.9517 37.9731 87.7266 39.3379 87.7266 41.5278C87.7266 43.7622 88.958 45.1333 90.9702 45.1333C92.6777 45.1333 93.7441 44.1748 93.9219 42.8164H92.5952C92.4175 43.5654 91.8271 43.9717 90.9639 43.9717C89.8276 43.9717 89.123 43.0513 89.123 41.5278C89.123 40.0361 89.8213 39.1348 90.9639 39.1348C91.8779 39.1348 92.4365 39.6489 92.5952 40.3218H93.9219ZM96.0674 36.3672V38.1255H94.9692V39.2173H96.0674V43.1846C96.0674 44.5112 96.6704 45.0444 98.1875 45.0444C98.4541 45.0444 98.708 45.0127 98.9302 44.9746V43.8892C98.7397 43.9082 98.6191 43.9209 98.4097 43.9209C97.7305 43.9209 97.4321 43.5972 97.4321 42.8545V39.2173H98.9302V38.1255H97.4321V36.3672H96.0674ZM106.001 45.1143C106.909 45.1143 107.665 44.7207 108.077 44.0225H108.185V45H109.499V40.2837C109.499 38.8364 108.521 37.9731 106.789 37.9731C105.221 37.9731 104.104 38.7285 103.964 39.8901H105.284C105.437 39.3887 105.963 39.103 106.725 39.103C107.658 39.103 108.141 39.5283 108.141 40.2837V40.8867L106.268 41.001C104.624 41.1025 103.697 41.8198 103.697 43.0576C103.697 44.3145 104.668 45.1143 106.001 45.1143ZM106.351 44.0161C105.608 44.0161 105.068 43.6416 105.068 43.0005C105.068 42.3721 105.5 42.0356 106.452 41.9722L108.141 41.8579V42.4546C108.141 43.3433 107.379 44.0161 106.351 44.0161ZM114.996 45H116.361V40.8804C116.361 39.9092 117.091 39.2427 118.125 39.2427C118.367 39.2427 118.773 39.2871 118.887 39.3188V38.0366C118.741 38.0049 118.481 37.9858 118.278 37.9858C117.376 37.9858 116.608 38.4746 116.412 39.1538H116.31V38.1064H114.996V45ZM124.556 43.1528C124.302 43.7114 123.737 44.0161 122.912 44.0161C121.82 44.0161 121.115 43.229 121.071 41.9785V41.915H125.952V41.4453C125.952 39.2871 124.791 37.9731 122.867 37.9731C120.918 37.9731 119.681 39.376 119.681 41.5659C119.681 43.7686 120.893 45.1333 122.874 45.1333C124.454 45.1333 125.571 44.3716 125.87 43.1528H124.556ZM122.861 39.084C123.87 39.084 124.53 39.814 124.562 40.9312H121.071C121.147 39.8203 121.852 39.084 122.861 39.084ZM127.431 40.0361C127.431 41.0581 128.041 41.6421 129.354 41.9468L130.561 42.2324C131.252 42.3975 131.576 42.6768 131.576 43.1084C131.576 43.6733 130.973 44.0669 130.123 44.0669C129.297 44.0669 128.79 43.7305 128.618 43.1909H127.253C127.374 44.3906 128.447 45.1333 130.091 45.1333C131.741 45.1333 132.954 44.2637 132.954 42.9814C132.954 41.9785 132.338 41.4136 131.024 41.1089L129.875 40.8423C129.126 40.6646 128.777 40.3979 128.777 39.9727C128.777 39.4141 129.354 39.0396 130.116 39.0396C130.891 39.0396 131.386 39.376 131.513 39.8901H132.82C132.687 38.6968 131.671 37.9731 130.116 37.9731C128.555 37.9731 127.431 38.8364 127.431 40.0361ZM137.518 45.1333C139.536 45.1333 140.774 43.7812 140.774 41.5532C140.774 39.3252 139.53 37.9731 137.518 37.9731C135.499 37.9731 134.255 39.3315 134.255 41.5532C134.255 43.7812 135.493 45.1333 137.518 45.1333ZM137.518 43.9717C136.331 43.9717 135.664 43.0894 135.664 41.5532C135.664 40.0171 136.331 39.1284 137.518 39.1284C138.698 39.1284 139.371 40.0171 139.371 41.5532C139.371 43.083 138.698 43.9717 137.518 43.9717ZM148.245 38.1064H146.88V42.1499C146.88 43.2607 146.277 43.9336 145.173 43.9336C144.17 43.9336 143.719 43.3877 143.719 42.2451V38.1064H142.354V42.5815C142.354 44.2002 143.205 45.1333 144.735 45.1333C145.782 45.1333 146.487 44.689 146.823 43.9082H146.931V45H148.245V38.1064ZM150.226 45H151.59V40.8804C151.59 39.9092 152.32 39.2427 153.355 39.2427C153.596 39.2427 154.002 39.2871 154.117 39.3188V38.0366C153.971 38.0049 153.71 37.9858 153.507 37.9858C152.606 37.9858 151.838 38.4746 151.641 39.1538H151.54V38.1064H150.226V45ZM161.105 40.3218C160.928 38.9824 159.88 37.9731 158.147 37.9731C156.135 37.9731 154.91 39.3379 154.91 41.5278C154.91 43.7622 156.142 45.1333 158.154 45.1333C159.861 45.1333 160.928 44.1748 161.105 42.8164H159.779C159.601 43.5654 159.011 43.9717 158.147 43.9717C157.011 43.9717 156.307 43.0513 156.307 41.5278C156.307 40.0361 157.005 39.1348 158.147 39.1348C159.062 39.1348 159.62 39.6489 159.779 40.3218H161.105ZM167.199 43.1528C166.945 43.7114 166.38 44.0161 165.555 44.0161C164.463 44.0161 163.759 43.229 163.714 41.9785V41.915H168.596V41.4453C168.596 39.2871 167.434 37.9731 165.511 37.9731C163.562 37.9731 162.324 39.376 162.324 41.5659C162.324 43.7686 163.537 45.1333 165.517 45.1333C167.098 45.1333 168.215 44.3716 168.513 43.1528H167.199ZM165.504 39.084C166.514 39.084 167.174 39.814 167.206 40.9312H163.714C163.791 39.8203 164.495 39.084 165.504 39.084ZM174.271 36.3672V38.1255H173.172V39.2173H174.271V43.1846C174.271 44.5112 174.874 45.0444 176.391 45.0444C176.657 45.0444 176.911 45.0127 177.133 44.9746V43.8892C176.943 43.9082 176.822 43.9209 176.613 43.9209C175.934 43.9209 175.635 43.5972 175.635 42.8545V39.2173H177.133V38.1255H175.635V36.3672H174.271ZM181.583 45.1333C183.602 45.1333 184.839 43.7812 184.839 41.5532C184.839 39.3252 183.595 37.9731 181.583 37.9731C179.564 37.9731 178.32 39.3315 178.32 41.5532C178.32 43.7812 179.558 45.1333 181.583 45.1333ZM181.583 43.9717C180.396 43.9717 179.729 43.0894 179.729 41.5532C179.729 40.0171 180.396 39.1284 181.583 39.1284C182.764 39.1284 183.437 40.0171 183.437 41.5532C183.437 43.083 182.764 43.9717 181.583 43.9717ZM195.891 40.3218C195.713 38.9824 194.666 37.9731 192.933 37.9731C190.92 37.9731 189.695 39.3379 189.695 41.5278C189.695 43.7622 190.927 45.1333 192.939 45.1333C194.646 45.1333 195.713 44.1748 195.891 42.8164H194.564C194.386 43.5654 193.796 43.9717 192.933 43.9717C191.796 43.9717 191.092 43.0513 191.092 41.5278C191.092 40.0361 191.79 39.1348 192.933 39.1348C193.847 39.1348 194.405 39.6489 194.564 40.3218H195.891ZM197.452 45H198.817V40.8804C198.817 39.9092 199.547 39.2427 200.582 39.2427C200.823 39.2427 201.229 39.2871 201.343 39.3188V38.0366C201.197 38.0049 200.937 37.9858 200.734 37.9858C199.833 37.9858 199.064 38.4746 198.868 39.1538H198.766V38.1064H197.452V45ZM207.012 43.1528C206.758 43.7114 206.193 44.0161 205.368 44.0161C204.276 44.0161 203.571 43.229 203.527 41.9785V41.915H208.408V41.4453C208.408 39.2871 207.247 37.9731 205.323 37.9731C203.375 37.9731 202.137 39.376 202.137 41.5659C202.137 43.7686 203.349 45.1333 205.33 45.1333C206.91 45.1333 208.027 44.3716 208.326 43.1528H207.012ZM205.317 39.084C206.326 39.084 206.986 39.814 207.018 40.9312H203.527C203.603 39.8203 204.308 39.084 205.317 39.084ZM211.957 45.1143C212.864 45.1143 213.62 44.7207 214.032 44.0225H214.14V45H215.454V40.2837C215.454 38.8364 214.477 37.9731 212.744 37.9731C211.176 37.9731 210.059 38.7285 209.919 39.8901H211.239C211.392 39.3887 211.918 39.103 212.68 39.103C213.613 39.103 214.096 39.5283 214.096 40.2837V40.8867L212.223 41.001C210.579 41.1025 209.652 41.8198 209.652 43.0576C209.652 44.3145 210.624 45.1143 211.957 45.1143ZM212.306 44.0161C211.563 44.0161 211.023 43.6416 211.023 43.0005C211.023 42.3721 211.455 42.0356 212.407 41.9722L214.096 41.8579V42.4546C214.096 43.3433 213.334 44.0161 212.306 44.0161ZM217.879 36.3672V38.1255H216.781V39.2173H217.879V43.1846C217.879 44.5112 218.482 45.0444 219.999 45.0444C220.266 45.0444 220.52 45.0127 220.742 44.9746V43.8892C220.551 43.9082 220.431 43.9209 220.221 43.9209C219.542 43.9209 219.244 43.5972 219.244 42.8545V39.2173H220.742V38.1255H219.244V36.3672H217.879ZM226.804 43.1528C226.55 43.7114 225.985 44.0161 225.16 44.0161C224.068 44.0161 223.363 43.229 223.319 41.9785V41.915H228.2V41.4453C228.2 39.2871 227.039 37.9731 225.115 37.9731C223.167 37.9731 221.929 39.376 221.929 41.5659C221.929 43.7686 223.141 45.1333 225.122 45.1333C226.702 45.1333 227.819 44.3716 228.118 43.1528H226.804ZM225.109 39.084C226.118 39.084 226.778 39.814 226.81 40.9312H223.319C223.395 39.8203 224.1 39.084 225.109 39.084Z" fill="var(--vscode-input-foreground, #cccccc)"/>
<rect x="55.5" y="27.5" width="410" height="25" stroke="var(--vscode-focusBorder, #0078d4)"/>
<rect width="425" height="42" transform="translate(48 60)" fill="var(--vscode-quickInputList-focusBackground, #062F4A)"/>
<path d="M64.9067 76.2222C66.9507 76.2222 68.4551 75.0479 68.709 73.2642H67.2935C67.0396 74.3052 66.1191 74.959 64.9067 74.959C63.2563 74.959 62.228 73.6006 62.228 71.4233C62.228 69.2461 63.2563 67.8813 64.9004 67.8813C66.1064 67.8813 67.0269 68.605 67.2935 69.7412H68.709C68.4805 67.9067 66.9189 66.6182 64.9004 66.6182C62.355 66.6182 60.7744 68.459 60.7744 71.4233C60.7744 74.3813 62.3613 76.2222 64.9067 76.2222ZM70.4229 76H71.7876V71.8804C71.7876 70.9092 72.5176 70.2427 73.5522 70.2427C73.7935 70.2427 74.1997 70.2871 74.314 70.3188V69.0366C74.168 69.0049 73.9077 68.9858 73.7046 68.9858C72.8032 68.9858 72.0352 69.4746 71.8384 70.1538H71.7368V69.1064H70.4229V76ZM79.9824 74.1528C79.7285 74.7114 79.1636 75.0161 78.3384 75.0161C77.2466 75.0161 76.542 74.229 76.4976 72.9785V72.915H81.3789V72.4453C81.3789 70.2871 80.2173 68.9731 78.2939 68.9731C76.3452 68.9731 75.1074 70.376 75.1074 72.5659C75.1074 74.7686 76.3198 76.1333 78.3003 76.1333C79.8809 76.1333 80.998 75.3716 81.2964 74.1528H79.9824ZM78.2876 70.084C79.2969 70.084 79.957 70.814 79.9888 71.9312H76.4976C76.5737 70.8203 77.2783 70.084 78.2876 70.084ZM84.9272 76.1143C85.835 76.1143 86.5903 75.7207 87.0029 75.0225H87.1108V76H88.4248V71.2837C88.4248 69.8364 87.4473 68.9731 85.7144 68.9731C84.1465 68.9731 83.0293 69.7285 82.8896 70.8901H84.21C84.3623 70.3887 84.8892 70.103 85.6509 70.103C86.584 70.103 87.0664 70.5283 87.0664 71.2837V71.8867L85.1938 72.001C83.5498 72.1025 82.623 72.8198 82.623 74.0576C82.623 75.3145 83.5942 76.1143 84.9272 76.1143ZM85.2764 75.0161C84.5337 75.0161 83.9941 74.6416 83.9941 74.0005C83.9941 73.3721 84.4258 73.0356 85.3779 72.9722L87.0664 72.8579V73.4546C87.0664 74.3433 86.3047 75.0161 85.2764 75.0161ZM90.8496 67.3672V69.1255H89.7515V70.2173H90.8496V74.1846C90.8496 75.5112 91.4526 76.0444 92.9697 76.0444C93.2363 76.0444 93.4902 76.0127 93.7124 75.9746V74.8892C93.522 74.9082 93.4014 74.9209 93.1919 74.9209C92.5127 74.9209 92.2144 74.5972 92.2144 73.8545V70.2173H93.7124V69.1255H92.2144V67.3672H90.8496ZM99.7744 74.1528C99.5205 74.7114 98.9556 75.0161 98.1304 75.0161C97.0386 75.0161 96.334 74.229 96.2896 72.9785V72.915H101.171V72.4453C101.171 70.2871 100.009 68.9731 98.0859 68.9731C96.1372 68.9731 94.8994 70.376 94.8994 72.5659C94.8994 74.7686 96.1118 76.1333 98.0923 76.1333C99.6729 76.1333 100.79 75.3716 101.088 74.1528H99.7744ZM98.0796 70.084C99.0889 70.084 99.749 70.814 99.7808 71.9312H96.2896C96.3657 70.8203 97.0703 70.084 98.0796 70.084ZM106.09 73.5562C106.192 75.1812 107.557 76.2222 109.588 76.2222C111.759 76.2222 113.117 75.1304 113.117 73.3975C113.117 72.0264 112.343 71.271 110.464 70.8203L109.455 70.5728C108.261 70.2808 107.779 69.8999 107.779 69.2334C107.779 68.3765 108.528 67.8242 109.651 67.8242C110.718 67.8242 111.454 68.3574 111.587 69.2271H112.971C112.889 67.6973 111.53 66.6182 109.67 66.6182C107.671 66.6182 106.338 67.6973 106.338 69.3096C106.338 70.6426 107.093 71.4297 108.75 71.8296L109.931 72.1152C111.143 72.4072 111.676 72.8516 111.676 73.5688C111.676 74.4067 110.838 75.0098 109.696 75.0098C108.471 75.0098 107.62 74.4448 107.5 73.5562H106.09ZM115.313 67.3672V69.1255H114.215V70.2173H115.313V74.1846C115.313 75.5112 115.917 76.0444 117.434 76.0444C117.7 76.0444 117.954 76.0127 118.176 75.9746V74.8892C117.986 74.9082 117.865 74.9209 117.656 74.9209C116.977 74.9209 116.678 74.5972 116.678 73.8545V70.2173H118.176V69.1255H116.678V67.3672H115.313ZM121.693 76.1143C122.601 76.1143 123.356 75.7207 123.769 75.0225H123.876V76H125.19V71.2837C125.19 69.8364 124.213 68.9731 122.48 68.9731C120.912 68.9731 119.795 69.7285 119.655 70.8901H120.976C121.128 70.3887 121.655 70.103 122.417 70.103C123.35 70.103 123.832 70.5283 123.832 71.2837V71.8867L121.959 72.001C120.315 72.1025 119.389 72.8198 119.389 74.0576C119.389 75.3145 120.36 76.1143 121.693 76.1143ZM122.042 75.0161C121.299 75.0161 120.76 74.6416 120.76 74.0005C120.76 73.3721 121.191 73.0356 122.144 72.9722L123.832 72.8579V73.4546C123.832 74.3433 123.07 75.0161 122.042 75.0161ZM127.615 67.3672V69.1255H126.517V70.2173H127.615V74.1846C127.615 75.5112 128.218 76.0444 129.735 76.0444C130.002 76.0444 130.256 76.0127 130.478 75.9746V74.8892C130.288 74.9082 130.167 74.9209 129.958 74.9209C129.278 74.9209 128.98 74.5972 128.98 73.8545V70.2173H130.478V69.1255H128.98V67.3672H127.615ZM132.789 67.875C133.265 67.875 133.652 67.4878 133.652 67.0181C133.652 66.542 133.265 66.1548 132.789 66.1548C132.312 66.1548 131.925 66.542 131.925 67.0181C131.925 67.4878 132.312 67.875 132.789 67.875ZM132.109 76H133.468V69.1064H132.109V76ZM141.326 71.3218C141.148 69.9824 140.101 68.9731 138.368 68.9731C136.356 68.9731 135.131 70.3379 135.131 72.5278C135.131 74.7622 136.362 76.1333 138.375 76.1333C140.082 76.1333 141.148 75.1748 141.326 73.8164H140C139.822 74.5654 139.231 74.9717 138.368 74.9717C137.232 74.9717 136.527 74.0513 136.527 72.5278C136.527 71.0361 137.226 70.1348 138.368 70.1348C139.282 70.1348 139.841 70.6489 140 71.3218H141.326ZM151.793 69.1509H151.882L153.85 76H155.189L157.665 66.8403H156.186L154.51 73.9624H154.421L152.498 66.8403H151.178L149.267 73.9624H149.178L147.496 66.8403H146.017L148.486 76H149.832L151.793 69.1509ZM163.073 74.1528C162.819 74.7114 162.254 75.0161 161.429 75.0161C160.337 75.0161 159.633 74.229 159.588 72.9785V72.915H164.47V72.4453C164.47 70.2871 163.308 68.9731 161.385 68.9731C159.436 68.9731 158.198 70.376 158.198 72.5659C158.198 74.7686 159.411 76.1333 161.391 76.1333C162.972 76.1333 164.089 75.3716 164.387 74.1528H163.073ZM161.378 70.084C162.388 70.084 163.048 70.814 163.08 71.9312H159.588C159.665 70.8203 160.369 70.084 161.378 70.084ZM169.77 76.1143C171.516 76.1143 172.626 74.7241 172.626 72.5532C172.626 70.3633 171.522 68.9858 169.77 68.9858C168.824 68.9858 168.012 69.4492 167.644 70.1982H167.536V66.4023H166.171V76H167.485V74.9082H167.586C167.999 75.6699 168.805 76.1143 169.77 76.1143ZM169.376 70.1538C170.532 70.1538 171.224 71.0615 171.224 72.5532C171.224 74.0449 170.532 74.9463 169.376 74.9463C168.228 74.9463 167.517 74.0322 167.51 72.5532C167.517 71.0742 168.234 70.1538 169.376 70.1538ZM183.913 76H185.423L182.116 66.8403H180.586L177.279 76H178.739L179.583 73.5244H183.075L183.913 76ZM181.278 68.459H181.386L182.713 72.3818H179.945L181.278 68.459ZM190.451 68.9858C189.511 68.9858 188.699 69.4619 188.28 70.249H188.178V69.1064H186.864V78.2979H188.229V74.959H188.337C188.699 75.689 189.479 76.1143 190.463 76.1143C192.209 76.1143 193.32 74.7305 193.32 72.5532C193.32 70.3633 192.209 68.9858 190.451 68.9858ZM190.063 74.9463C188.921 74.9463 188.204 74.0259 188.204 72.5532C188.204 71.0742 188.921 70.1538 190.07 70.1538C191.225 70.1538 191.917 71.0552 191.917 72.5532C191.917 74.0513 191.225 74.9463 190.063 74.9463ZM198.55 68.9858C197.611 68.9858 196.798 69.4619 196.379 70.249H196.278V69.1064H194.964V78.2979H196.329V74.959H196.437C196.798 75.689 197.579 76.1143 198.563 76.1143C200.309 76.1143 201.419 74.7305 201.419 72.5532C201.419 70.3633 200.309 68.9858 198.55 68.9858ZM198.163 74.9463C197.021 74.9463 196.303 74.0259 196.303 72.5532C196.303 71.0742 197.021 70.1538 198.169 70.1538C199.325 70.1538 200.017 71.0552 200.017 72.5532C200.017 74.0513 199.325 74.9463 198.163 74.9463ZM203.971 76.0952C204.511 76.0952 204.904 75.6953 204.904 75.1812C204.904 74.667 204.511 74.2671 203.971 74.2671C203.438 74.2671 203.038 74.667 203.038 75.1812C203.038 75.6953 203.438 76.0952 203.971 76.0952ZM208.072 76.0952C208.611 76.0952 209.005 75.6953 209.005 75.1812C209.005 74.667 208.611 74.2671 208.072 74.2671C207.539 74.2671 207.139 74.667 207.139 75.1812C207.139 75.6953 207.539 76.0952 208.072 76.0952ZM212.172 76.0952C212.712 76.0952 213.105 75.6953 213.105 75.1812C213.105 74.667 212.712 74.2671 212.172 74.2671C211.639 74.2671 211.239 74.667 211.239 75.1812C211.239 75.6953 211.639 76.0952 212.172 76.0952Z" fill="var(--vscode-quickInputList-focusForeground, #E3E3E3)"/>
<path opacity="0.7" d="M62.5708 95V91.166H66.5063V89.9663H62.5708V87.0654H66.8682V85.8403H61.1489V95H62.5708ZM71.4766 95.1333C73.4951 95.1333 74.7329 93.7812 74.7329 91.5532C74.7329 89.3252 73.4888 87.9731 71.4766 87.9731C69.458 87.9731 68.2139 89.3315 68.2139 91.5532C68.2139 93.7812 69.4517 95.1333 71.4766 95.1333ZM71.4766 93.9717C70.2896 93.9717 69.623 93.0894 69.623 91.5532C69.623 90.0171 70.2896 89.1284 71.4766 89.1284C72.6572 89.1284 73.3301 90.0171 73.3301 91.5532C73.3301 93.083 72.6572 93.9717 71.4766 93.9717ZM76.377 95H77.7417V90.8804C77.7417 89.9092 78.4717 89.2427 79.5063 89.2427C79.7476 89.2427 80.1538 89.2871 80.2681 89.3188V88.0366C80.1221 88.0049 79.8618 87.9858 79.6587 87.9858C78.7573 87.9858 77.9893 88.4746 77.7925 89.1538H77.6909V88.1064H76.377V95ZM85.6255 95H86.9902V89.2173H88.5137V88.1255H86.9712V87.4463C86.9712 86.748 87.2822 86.3989 88.0439 86.3989C88.2598 86.3989 88.4438 86.4116 88.5708 86.4307V85.4023C88.3359 85.3643 88.0693 85.3389 87.7583 85.3389C86.3237 85.3389 85.6255 86.0117 85.6255 87.3828V88.1255H84.4893V89.2173H85.6255V95ZM90.0625 95H91.4272V90.8804C91.4272 89.9092 92.1572 89.2427 93.1919 89.2427C93.4331 89.2427 93.8394 89.2871 93.9536 89.3188V88.0366C93.8076 88.0049 93.5474 87.9858 93.3442 87.9858C92.4429 87.9858 91.6748 88.4746 91.478 89.1538H91.3765V88.1064H90.0625V95ZM98.0098 95.1333C100.028 95.1333 101.266 93.7812 101.266 91.5532C101.266 89.3252 100.022 87.9731 98.0098 87.9731C95.9912 87.9731 94.7471 89.3315 94.7471 91.5532C94.7471 93.7812 95.9849 95.1333 98.0098 95.1333ZM98.0098 93.9717C96.8228 93.9717 96.1562 93.0894 96.1562 91.5532C96.1562 90.0171 96.8228 89.1284 98.0098 89.1284C99.1904 89.1284 99.8633 90.0171 99.8633 91.5532C99.8633 93.083 99.1904 93.9717 98.0098 93.9717ZM102.91 95H104.275V90.9565C104.275 89.8457 104.916 89.1602 105.925 89.1602C106.935 89.1602 107.417 89.7188 107.417 90.8613V95H108.782V90.5376C108.782 88.8936 107.931 87.9731 106.389 87.9731C105.348 87.9731 104.662 88.4365 104.326 89.1982H104.224V88.1064H102.91V95ZM111.188 86.3672V88.1255H110.089V89.2173H111.188V93.1846C111.188 94.5112 111.791 95.0444 113.308 95.0444C113.574 95.0444 113.828 95.0127 114.05 94.9746V93.8892C113.86 93.9082 113.739 93.9209 113.53 93.9209C112.851 93.9209 112.552 93.5972 112.552 92.8545V89.2173H114.05V88.1255H112.552V86.3672H111.188ZM119.63 91.9404V90.6772H115.466V91.9404H119.63ZM126.168 93.1528C125.914 93.7114 125.349 94.0161 124.524 94.0161C123.432 94.0161 122.728 93.229 122.683 91.9785V91.915H127.564V91.4453C127.564 89.2871 126.403 87.9731 124.479 87.9731C122.531 87.9731 121.293 89.376 121.293 91.5659C121.293 93.7686 122.505 95.1333 124.486 95.1333C126.066 95.1333 127.184 94.3716 127.482 93.1528H126.168ZM124.473 89.084C125.482 89.084 126.143 89.814 126.174 90.9312H122.683C122.759 89.8203 123.464 89.084 124.473 89.084ZM129.202 95H130.567V90.9565C130.567 89.8457 131.208 89.1602 132.217 89.1602C133.227 89.1602 133.709 89.7188 133.709 90.8613V95H135.074V90.5376C135.074 88.8936 134.223 87.9731 132.681 87.9731C131.64 87.9731 130.954 88.4365 130.618 89.1982H130.516V88.1064H129.202V95ZM139.523 95.1143C140.476 95.1143 141.282 94.6636 141.694 93.9082H141.802V95H143.11V85.4023H141.745V89.1982H141.644C141.269 88.4429 140.469 87.9858 139.523 87.9858C137.778 87.9858 136.654 89.376 136.654 91.5469C136.654 93.7305 137.765 95.1143 139.523 95.1143ZM139.911 89.1538C141.053 89.1538 141.771 90.0806 141.771 91.5532C141.771 93.0386 141.06 93.9463 139.911 93.9463C138.755 93.9463 138.063 93.0513 138.063 91.5532C138.063 90.0615 138.762 89.1538 139.911 89.1538ZM150.625 95.1143C151.533 95.1143 152.289 94.7207 152.701 94.0225H152.809V95H154.123V90.2837C154.123 88.8364 153.146 87.9731 151.413 87.9731C149.845 87.9731 148.728 88.7285 148.588 89.8901H149.908C150.061 89.3887 150.587 89.103 151.349 89.103C152.282 89.103 152.765 89.5283 152.765 90.2837V90.8867L150.892 91.001C149.248 91.1025 148.321 91.8198 148.321 93.0576C148.321 94.3145 149.292 95.1143 150.625 95.1143ZM150.975 94.0161C150.232 94.0161 149.692 93.6416 149.692 93.0005C149.692 92.3721 150.124 92.0356 151.076 91.9722L152.765 91.8579V92.4546C152.765 93.3433 152.003 94.0161 150.975 94.0161ZM159.652 87.9858C158.712 87.9858 157.9 88.4619 157.481 89.249H157.379V88.1064H156.065V97.2979H157.43V93.959H157.538C157.9 94.689 158.681 95.1143 159.665 95.1143C161.41 95.1143 162.521 93.7305 162.521 91.5532C162.521 89.3633 161.41 87.9858 159.652 87.9858ZM159.265 93.9463C158.122 93.9463 157.405 93.0259 157.405 91.5532C157.405 90.0742 158.122 89.1538 159.271 89.1538C160.426 89.1538 161.118 90.0552 161.118 91.5532C161.118 93.0513 160.426 93.9463 159.265 93.9463ZM167.751 87.9858C166.812 87.9858 166 88.4619 165.581 89.249H165.479V88.1064H164.165V97.2979H165.53V93.959H165.638C166 94.689 166.78 95.1143 167.764 95.1143C169.51 95.1143 170.621 93.7305 170.621 91.5532C170.621 89.3633 169.51 87.9858 167.751 87.9858ZM167.364 93.9463C166.222 93.9463 165.504 93.0259 165.504 91.5532C165.504 90.0742 166.222 89.1538 167.371 89.1538C168.526 89.1538 169.218 90.0552 169.218 91.5532C169.218 93.0513 168.526 93.9463 167.364 93.9463ZM172.106 90.0361C172.106 91.0581 172.715 91.6421 174.029 91.9468L175.235 92.2324C175.927 92.3975 176.251 92.6768 176.251 93.1084C176.251 93.6733 175.648 94.0669 174.797 94.0669C173.972 94.0669 173.464 93.7305 173.293 93.1909H171.928C172.049 94.3906 173.122 95.1333 174.766 95.1333C176.416 95.1333 177.628 94.2637 177.628 92.9814C177.628 91.9785 177.013 91.4136 175.699 91.1089L174.55 90.8423C173.801 90.6646 173.452 90.3979 173.452 89.9727C173.452 89.4141 174.029 89.0396 174.791 89.0396C175.565 89.0396 176.061 89.376 176.188 89.8901H177.495C177.362 88.6968 176.346 87.9731 174.791 87.9731C173.229 87.9731 172.106 88.8364 172.106 90.0361ZM191.828 88.1064H190.463L189.232 93.4258H189.124L187.702 88.1064H186.395L184.973 93.4258H184.871L183.633 88.1064H182.25L184.154 95H185.557L186.979 89.8584H187.086L188.515 95H189.93L191.828 88.1064ZM193.942 86.875C194.418 86.875 194.805 86.4878 194.805 86.0181C194.805 85.542 194.418 85.1548 193.942 85.1548C193.466 85.1548 193.079 85.542 193.079 86.0181C193.079 86.4878 193.466 86.875 193.942 86.875ZM193.263 95H194.621V88.1064H193.263V95ZM197.109 86.3672V88.1255H196.011V89.2173H197.109V93.1846C197.109 94.5112 197.712 95.0444 199.229 95.0444C199.496 95.0444 199.75 95.0127 199.972 94.9746V93.8892C199.782 93.9082 199.661 93.9209 199.452 93.9209C198.772 93.9209 198.474 93.5972 198.474 92.8545V89.2173H199.972V88.1255H198.474V86.3672H197.109ZM201.642 95H203.006V90.9629C203.006 89.8838 203.628 89.1665 204.746 89.1665C205.71 89.1665 206.225 89.7314 206.225 90.8677V95H207.589V90.5439C207.589 88.9126 206.682 87.9795 205.209 87.9795C204.168 87.9795 203.438 88.4365 203.102 89.2046H202.994V85.4023H201.642V95ZM215.987 95.1333C218.006 95.1333 219.244 93.7812 219.244 91.5532C219.244 89.3252 218 87.9731 215.987 87.9731C213.969 87.9731 212.725 89.3315 212.725 91.5532C212.725 93.7812 213.962 95.1333 215.987 95.1333ZM215.987 93.9717C214.8 93.9717 214.134 93.0894 214.134 91.5532C214.134 90.0171 214.8 89.1284 215.987 89.1284C217.168 89.1284 217.841 90.0171 217.841 91.5532C217.841 93.083 217.168 93.9717 215.987 93.9717ZM224.474 87.9858C223.535 87.9858 222.722 88.4619 222.303 89.249H222.202V88.1064H220.888V97.2979H222.252V93.959H222.36C222.722 94.689 223.503 95.1143 224.487 95.1143C226.232 95.1143 227.343 93.7305 227.343 91.5532C227.343 89.3633 226.232 87.9858 224.474 87.9858ZM224.087 93.9463C222.944 93.9463 222.227 93.0259 222.227 91.5532C222.227 90.0742 222.944 89.1538 224.093 89.1538C225.249 89.1538 225.94 90.0552 225.94 91.5532C225.94 93.0513 225.249 93.9463 224.087 93.9463ZM229.47 86.3672V88.1255H228.372V89.2173H229.47V93.1846C229.47 94.5112 230.073 95.0444 231.59 95.0444C231.856 95.0444 232.11 95.0127 232.333 94.9746V93.8892C232.142 93.9082 232.021 93.9209 231.812 93.9209C231.133 93.9209 230.834 93.5972 230.834 92.8545V89.2173H232.333V88.1255H230.834V86.3672H229.47ZM234.643 86.875C235.119 86.875 235.506 86.4878 235.506 86.0181C235.506 85.542 235.119 85.1548 234.643 85.1548C234.167 85.1548 233.78 85.542 233.78 86.0181C233.78 86.4878 234.167 86.875 234.643 86.875ZM233.964 95H235.322V88.1064H233.964V95ZM240.248 95.1333C242.267 95.1333 243.504 93.7812 243.504 91.5532C243.504 89.3252 242.26 87.9731 240.248 87.9731C238.229 87.9731 236.985 89.3315 236.985 91.5532C236.985 93.7812 238.223 95.1333 240.248 95.1333ZM240.248 93.9717C239.061 93.9717 238.395 93.0894 238.395 91.5532C238.395 90.0171 239.061 89.1284 240.248 89.1284C241.429 89.1284 242.102 90.0171 242.102 91.5532C242.102 93.083 241.429 93.9717 240.248 93.9717ZM245.148 95H246.513V90.9565C246.513 89.8457 247.154 89.1602 248.164 89.1602C249.173 89.1602 249.655 89.7188 249.655 90.8613V95H251.02V90.5376C251.02 88.8936 250.169 87.9731 248.627 87.9731C247.586 87.9731 246.9 88.4365 246.564 89.1982H246.462V88.1064H245.148V95ZM254.854 95.1143C255.762 95.1143 256.517 94.7207 256.93 94.0225H257.038V95H258.352V90.2837C258.352 88.8364 257.374 87.9731 255.641 87.9731C254.073 87.9731 252.956 88.7285 252.816 89.8901H254.137C254.289 89.3887 254.816 89.103 255.578 89.103C256.511 89.103 256.993 89.5283 256.993 90.2837V90.8867L255.121 91.001C253.477 91.1025 252.55 91.8198 252.55 93.0576C252.55 94.3145 253.521 95.1143 254.854 95.1143ZM255.203 94.0161C254.46 94.0161 253.921 93.6416 253.921 93.0005C253.921 92.3721 254.353 92.0356 255.305 91.9722L256.993 91.8579V92.4546C256.993 93.3433 256.231 94.0161 255.203 94.0161ZM260.357 95H261.722V85.4023H260.357V95ZM267.168 90.0361C267.168 91.0581 267.778 91.6421 269.092 91.9468L270.298 92.2324C270.99 92.3975 271.313 92.6768 271.313 93.1084C271.313 93.6733 270.71 94.0669 269.86 94.0669C269.035 94.0669 268.527 93.7305 268.355 93.1909H266.991C267.111 94.3906 268.184 95.1333 269.828 95.1333C271.479 95.1333 272.691 94.2637 272.691 92.9814C272.691 91.9785 272.075 91.4136 270.761 91.1089L269.612 90.8423C268.863 90.6646 268.514 90.3979 268.514 89.9727C268.514 89.4141 269.092 89.0396 269.854 89.0396C270.628 89.0396 271.123 89.376 271.25 89.8901H272.558C272.424 88.6968 271.409 87.9731 269.854 87.9731C268.292 87.9731 267.168 88.8364 267.168 90.0361ZM278.867 93.1528C278.613 93.7114 278.048 94.0161 277.223 94.0161C276.131 94.0161 275.427 93.229 275.382 91.9785V91.915H280.264V91.4453C280.264 89.2871 279.102 87.9731 277.179 87.9731C275.23 87.9731 273.992 89.376 273.992 91.5659C273.992 93.7686 275.205 95.1333 277.185 95.1333C278.766 95.1333 279.883 94.3716 280.181 93.1528H278.867ZM277.172 89.084C278.182 89.084 278.842 89.814 278.874 90.9312H275.382C275.458 89.8203 276.163 89.084 277.172 89.084ZM281.901 95H283.266V90.8804C283.266 89.9092 283.996 89.2427 285.031 89.2427C285.272 89.2427 285.678 89.2871 285.792 89.3188V88.0366C285.646 88.0049 285.386 87.9858 285.183 87.9858C284.282 87.9858 283.514 88.4746 283.317 89.1538H283.215V88.1064H281.901V95ZM292.997 88.1064H291.55L289.836 93.6035H289.728L288.008 88.1064H286.548L289.042 95H290.509L292.997 88.1064ZM298.646 93.1528C298.393 93.7114 297.828 94.0161 297.002 94.0161C295.911 94.0161 295.206 93.229 295.162 91.9785V91.915H300.043V91.4453C300.043 89.2871 298.881 87.9731 296.958 87.9731C295.009 87.9731 293.771 89.376 293.771 91.5659C293.771 93.7686 294.984 95.1333 296.964 95.1333C298.545 95.1333 299.662 94.3716 299.96 93.1528H298.646ZM296.952 89.084C297.961 89.084 298.621 89.814 298.653 90.9312H295.162C295.238 89.8203 295.942 89.084 296.952 89.084ZM301.681 95H303.045V90.8804C303.045 89.9092 303.775 89.2427 304.81 89.2427C305.051 89.2427 305.458 89.2871 305.572 89.3188V88.0366C305.426 88.0049 305.166 87.9858 304.962 87.9858C304.061 87.9858 303.293 88.4746 303.096 89.1538H302.995V88.1064H301.681V95ZM306.949 95H308.314V85.4023H306.949V95ZM314.896 93.1528C314.643 93.7114 314.078 94.0161 313.252 94.0161C312.161 94.0161 311.456 93.229 311.412 91.9785V91.915H316.293V91.4453C316.293 89.2871 315.131 87.9731 313.208 87.9731C311.259 87.9731 310.021 89.376 310.021 91.5659C310.021 93.7686 311.234 95.1333 313.214 95.1333C314.795 95.1333 315.912 94.3716 316.21 93.1528H314.896ZM313.202 89.084C314.211 89.084 314.871 89.814 314.903 90.9312H311.412C311.488 89.8203 312.192 89.084 313.202 89.084ZM317.772 90.0361C317.772 91.0581 318.381 91.6421 319.695 91.9468L320.901 92.2324C321.593 92.3975 321.917 92.6768 321.917 93.1084C321.917 93.6733 321.314 94.0669 320.463 94.0669C319.638 94.0669 319.13 93.7305 318.959 93.1909H317.594C317.715 94.3906 318.788 95.1333 320.432 95.1333C322.082 95.1333 323.294 94.2637 323.294 92.9814C323.294 91.9785 322.679 91.4136 321.365 91.1089L320.216 90.8423C319.467 90.6646 319.118 90.3979 319.118 89.9727C319.118 89.4141 319.695 89.0396 320.457 89.0396C321.231 89.0396 321.727 89.376 321.854 89.8901H323.161C323.028 88.6968 322.012 87.9731 320.457 87.9731C318.896 87.9731 317.772 88.8364 317.772 90.0361ZM324.653 90.0361C324.653 91.0581 325.262 91.6421 326.576 91.9468L327.782 92.2324C328.474 92.3975 328.798 92.6768 328.798 93.1084C328.798 93.6733 328.195 94.0669 327.344 94.0669C326.519 94.0669 326.011 93.7305 325.84 93.1909H324.475C324.596 94.3906 325.668 95.1333 327.312 95.1333C328.963 95.1333 330.175 94.2637 330.175 92.9814C330.175 91.9785 329.56 91.4136 328.246 91.1089L327.097 90.8423C326.348 90.6646 325.999 90.3979 325.999 89.9727C325.999 89.4141 326.576 89.0396 327.338 89.0396C328.112 89.0396 328.607 89.376 328.734 89.8901H330.042C329.909 88.6968 328.893 87.9731 327.338 87.9731C325.776 87.9731 324.653 88.8364 324.653 90.0361ZM339.037 95.1143C340.782 95.1143 341.893 93.7241 341.893 91.5532C341.893 89.3633 340.789 87.9858 339.037 87.9858C338.091 87.9858 337.278 88.4492 336.91 89.1982H336.802V85.4023H335.438V95H336.751V93.9082H336.853C337.266 94.6699 338.072 95.1143 339.037 95.1143ZM338.643 89.1538C339.798 89.1538 340.49 90.0615 340.49 91.5532C340.49 93.0449 339.798 93.9463 338.643 93.9463C337.494 93.9463 336.783 93.0322 336.777 91.5532C336.783 90.0742 337.5 89.1538 338.643 89.1538ZM345.448 95.1143C346.355 95.1143 347.111 94.7207 347.523 94.0225H347.631V95H348.945V90.2837C348.945 88.8364 347.968 87.9731 346.235 87.9731C344.667 87.9731 343.55 88.7285 343.41 89.8901H344.73C344.883 89.3887 345.41 89.103 346.171 89.103C347.104 89.103 347.587 89.5283 347.587 90.2837V90.8867L345.714 91.001C344.07 91.1025 343.144 91.8198 343.144 93.0576C343.144 94.3145 344.115 95.1143 345.448 95.1143ZM345.797 94.0161C345.054 94.0161 344.515 93.6416 344.515 93.0005C344.515 92.3721 344.946 92.0356 345.898 91.9722L347.587 91.8579V92.4546C347.587 93.3433 346.825 94.0161 345.797 94.0161ZM356.74 90.3218C356.562 88.9824 355.515 87.9731 353.782 87.9731C351.77 87.9731 350.545 89.3379 350.545 91.5278C350.545 93.7622 351.776 95.1333 353.789 95.1333C355.496 95.1333 356.562 94.1748 356.74 92.8164H355.414C355.236 93.5654 354.646 93.9717 353.782 93.9717C352.646 93.9717 351.941 93.0513 351.941 91.5278C351.941 90.0361 352.64 89.1348 353.782 89.1348C354.696 89.1348 355.255 89.6489 355.414 90.3218H356.74ZM359.838 91.0137H359.73V85.4023H358.365V95H359.73V92.4927L360.333 91.915L362.707 95H364.383L361.349 91.0581L364.192 88.1064H362.58L359.838 91.0137ZM369.283 91.9404V90.6772H365.119V91.9404H369.283ZM375.821 93.1528C375.567 93.7114 375.002 94.0161 374.177 94.0161C373.085 94.0161 372.381 93.229 372.336 91.9785V91.915H377.218V91.4453C377.218 89.2871 376.056 87.9731 374.133 87.9731C372.184 87.9731 370.946 89.376 370.946 91.5659C370.946 93.7686 372.159 95.1333 374.139 95.1333C375.72 95.1333 376.837 94.3716 377.135 93.1528H375.821ZM374.126 89.084C375.136 89.084 375.796 89.814 375.828 90.9312H372.336C372.413 89.8203 373.117 89.084 374.126 89.084ZM378.855 95H380.22V90.9565C380.22 89.8457 380.861 89.1602 381.871 89.1602C382.88 89.1602 383.362 89.7188 383.362 90.8613V95H384.727V90.5376C384.727 88.8936 383.876 87.9731 382.334 87.9731C381.293 87.9731 380.607 88.4365 380.271 89.1982H380.169V88.1064H378.855V95ZM389.177 95.1143C390.129 95.1143 390.935 94.6636 391.348 93.9082H391.456V95H392.763V85.4023H391.398V89.1982H391.297C390.922 88.4429 390.123 87.9858 389.177 87.9858C387.431 87.9858 386.308 89.376 386.308 91.5469C386.308 93.7305 387.418 95.1143 389.177 95.1143ZM389.564 89.1538C390.707 89.1538 391.424 90.0806 391.424 91.5532C391.424 93.0386 390.713 93.9463 389.564 93.9463C388.409 93.9463 387.717 93.0513 387.717 91.5532C387.717 90.0615 388.415 89.1538 389.564 89.1538ZM394.655 90.0361C394.655 91.0581 395.264 91.6421 396.578 91.9468L397.784 92.2324C398.476 92.3975 398.8 92.6768 398.8 93.1084C398.8 93.6733 398.197 94.0669 397.346 94.0669C396.521 94.0669 396.013 93.7305 395.842 93.1909H394.477C394.598 94.3906 395.67 95.1333 397.314 95.1333C398.965 95.1333 400.177 94.2637 400.177 92.9814C400.177 91.9785 399.562 91.4136 398.248 91.1089L397.099 90.8423C396.35 90.6646 396 90.3979 396 89.9727C396 89.4141 396.578 89.0396 397.34 89.0396C398.114 89.0396 398.609 89.376 398.736 89.8901H400.044C399.911 88.6968 398.895 87.9731 397.34 87.9731C395.778 87.9731 394.655 88.8364 394.655 90.0361Z" fill="var(--vscode-quickInputList-focusForeground, #E3E3E3)"/>
<path d="M64.9067 118.222C66.9507 118.222 68.4551 117.048 68.709 115.264H67.2935C67.0396 116.305 66.1191 116.959 64.9067 116.959C63.2563 116.959 62.228 115.601 62.228 113.423C62.228 111.246 63.2563 109.881 64.9004 109.881C66.1064 109.881 67.0269 110.605 67.2935 111.741H68.709C68.4805 109.907 66.9189 108.618 64.9004 108.618C62.355 108.618 60.7744 110.459 60.7744 113.423C60.7744 116.381 62.3613 118.222 64.9067 118.222ZM70.4229 118H71.7876V113.88C71.7876 112.909 72.5176 112.243 73.5522 112.243C73.7935 112.243 74.1997 112.287 74.314 112.319V111.037C74.168 111.005 73.9077 110.986 73.7046 110.986C72.8032 110.986 72.0352 111.475 71.8384 112.154H71.7368V111.106H70.4229V118ZM79.9824 116.153C79.7285 116.711 79.1636 117.016 78.3384 117.016C77.2466 117.016 76.542 116.229 76.4976 114.979V114.915H81.3789V114.445C81.3789 112.287 80.2173 110.973 78.2939 110.973C76.3452 110.973 75.1074 112.376 75.1074 114.566C75.1074 116.769 76.3198 118.133 78.3003 118.133C79.8809 118.133 80.998 117.372 81.2964 116.153H79.9824ZM78.2876 112.084C79.2969 112.084 79.957 112.814 79.9888 113.931H76.4976C76.5737 112.82 77.2783 112.084 78.2876 112.084ZM84.9272 118.114C85.835 118.114 86.5903 117.721 87.0029 117.022H87.1108V118H88.4248V113.284C88.4248 111.836 87.4473 110.973 85.7144 110.973C84.1465 110.973 83.0293 111.729 82.8896 112.89H84.21C84.3623 112.389 84.8892 112.103 85.6509 112.103C86.584 112.103 87.0664 112.528 87.0664 113.284V113.887L85.1938 114.001C83.5498 114.103 82.623 114.82 82.623 116.058C82.623 117.314 83.5942 118.114 84.9272 118.114ZM85.2764 117.016C84.5337 117.016 83.9941 116.642 83.9941 116C83.9941 115.372 84.4258 115.036 85.3779 114.972L87.0664 114.858V115.455C87.0664 116.343 86.3047 117.016 85.2764 117.016ZM90.8496 109.367V111.125H89.7515V112.217H90.8496V116.185C90.8496 117.511 91.4526 118.044 92.9697 118.044C93.2363 118.044 93.4902 118.013 93.7124 117.975V116.889C93.522 116.908 93.4014 116.921 93.1919 116.921C92.5127 116.921 92.2144 116.597 92.2144 115.854V112.217H93.7124V111.125H92.2144V109.367H90.8496ZM99.7744 116.153C99.5205 116.711 98.9556 117.016 98.1304 117.016C97.0386 117.016 96.334 116.229 96.2896 114.979V114.915H101.171V114.445C101.171 112.287 100.009 110.973 98.0859 110.973C96.1372 110.973 94.8994 112.376 94.8994 114.566C94.8994 116.769 96.1118 118.133 98.0923 118.133C99.6729 118.133 100.79 117.372 101.088 116.153H99.7744ZM98.0796 112.084C99.0889 112.084 99.749 112.814 99.7808 113.931H96.2896C96.3657 112.82 97.0703 112.084 98.0796 112.084ZM112.451 118H113.961L110.654 108.84H109.125L105.817 118H107.277L108.122 115.524H111.613L112.451 118ZM109.816 110.459H109.924L111.251 114.382H108.483L109.816 110.459ZM118.989 110.986C118.049 110.986 117.237 111.462 116.818 112.249H116.716V111.106H115.402V120.298H116.767V116.959H116.875C117.237 117.689 118.018 118.114 119.001 118.114C120.747 118.114 121.858 116.73 121.858 114.553C121.858 112.363 120.747 110.986 118.989 110.986ZM118.602 116.946C117.459 116.946 116.742 116.026 116.742 114.553C116.742 113.074 117.459 112.154 118.608 112.154C119.763 112.154 120.455 113.055 120.455 114.553C120.455 116.051 119.763 116.946 118.602 116.946ZM127.088 110.986C126.149 110.986 125.336 111.462 124.917 112.249H124.816V111.106H123.502V120.298H124.867V116.959H124.975C125.336 117.689 126.117 118.114 127.101 118.114C128.847 118.114 129.958 116.73 129.958 114.553C129.958 112.363 128.847 110.986 127.088 110.986ZM126.701 116.946C125.559 116.946 124.841 116.026 124.841 114.553C124.841 113.074 125.559 112.154 126.708 112.154C127.863 112.154 128.555 113.055 128.555 114.553C128.555 116.051 127.863 116.946 126.701 116.946ZM134.883 115.556C134.985 117.181 136.35 118.222 138.381 118.222C140.552 118.222 141.91 117.13 141.91 115.397C141.91 114.026 141.136 113.271 139.257 112.82L138.248 112.573C137.054 112.281 136.572 111.9 136.572 111.233C136.572 110.376 137.321 109.824 138.444 109.824C139.511 109.824 140.247 110.357 140.38 111.227H141.764C141.682 109.697 140.323 108.618 138.463 108.618C136.464 108.618 135.131 109.697 135.131 111.31C135.131 112.643 135.886 113.43 137.543 113.83L138.724 114.115C139.936 114.407 140.469 114.852 140.469 115.569C140.469 116.407 139.631 117.01 138.489 117.01C137.264 117.01 136.413 116.445 136.292 115.556H134.883ZM148.156 116.153C147.902 116.711 147.337 117.016 146.512 117.016C145.42 117.016 144.716 116.229 144.671 114.979V114.915H149.553V114.445C149.553 112.287 148.391 110.973 146.468 110.973C144.519 110.973 143.281 112.376 143.281 114.566C143.281 116.769 144.494 118.133 146.474 118.133C148.055 118.133 149.172 117.372 149.47 116.153H148.156ZM146.461 112.084C147.471 112.084 148.131 112.814 148.163 113.931H144.671C144.748 112.82 145.452 112.084 146.461 112.084ZM151.19 118H152.555V113.88C152.555 112.909 153.285 112.243 154.32 112.243C154.561 112.243 154.967 112.287 155.082 112.319V111.037C154.936 111.005 154.675 110.986 154.472 110.986C153.571 110.986 152.803 111.475 152.606 112.154H152.504V111.106H151.19V118ZM162.286 111.106H160.839L159.125 116.604H159.017L157.297 111.106H155.837L158.332 118H159.798L162.286 111.106ZM164.375 109.875C164.851 109.875 165.238 109.488 165.238 109.018C165.238 108.542 164.851 108.155 164.375 108.155C163.898 108.155 163.511 108.542 163.511 109.018C163.511 109.488 163.898 109.875 164.375 109.875ZM163.695 118H165.054V111.106H163.695V118ZM172.912 113.322C172.734 111.982 171.687 110.973 169.954 110.973C167.942 110.973 166.717 112.338 166.717 114.528C166.717 116.762 167.948 118.133 169.96 118.133C171.668 118.133 172.734 117.175 172.912 115.816H171.585C171.408 116.565 170.817 116.972 169.954 116.972C168.818 116.972 168.113 116.051 168.113 114.528C168.113 113.036 168.812 112.135 169.954 112.135C170.868 112.135 171.427 112.649 171.585 113.322H172.912ZM179.006 116.153C178.752 116.711 178.187 117.016 177.362 117.016C176.27 117.016 175.565 116.229 175.521 114.979V114.915H180.402V114.445C180.402 112.287 179.241 110.973 177.317 110.973C175.369 110.973 174.131 112.376 174.131 114.566C174.131 116.769 175.343 118.133 177.324 118.133C178.904 118.133 180.021 117.372 180.32 116.153H179.006ZM177.311 112.084C178.32 112.084 178.98 112.814 179.012 113.931H175.521C175.597 112.82 176.302 112.084 177.311 112.084ZM190.946 111.151H191.035L193.002 118H194.342L196.817 108.84H195.338L193.663 115.962H193.574L191.65 108.84H190.33L188.419 115.962H188.331L186.648 108.84H185.169L187.639 118H188.984L190.946 111.151ZM202.226 116.153C201.972 116.711 201.407 117.016 200.582 117.016C199.49 117.016 198.785 116.229 198.741 114.979V114.915H203.622V114.445C203.622 112.287 202.46 110.973 200.537 110.973C198.588 110.973 197.351 112.376 197.351 114.566C197.351 116.769 198.563 118.133 200.543 118.133C202.124 118.133 203.241 117.372 203.54 116.153H202.226ZM200.531 112.084C201.54 112.084 202.2 112.814 202.232 113.931H198.741C198.817 112.82 199.521 112.084 200.531 112.084ZM208.922 118.114C210.668 118.114 211.779 116.724 211.779 114.553C211.779 112.363 210.674 110.986 208.922 110.986C207.977 110.986 207.164 111.449 206.796 112.198H206.688V108.402H205.323V118H206.637V116.908H206.739C207.151 117.67 207.958 118.114 208.922 118.114ZM208.529 112.154C209.684 112.154 210.376 113.062 210.376 114.553C210.376 116.045 209.684 116.946 208.529 116.946C207.38 116.946 206.669 116.032 206.663 114.553C206.669 113.074 207.386 112.154 208.529 112.154ZM223.065 118H224.576L221.269 108.84H219.739L216.432 118H217.892L218.736 115.524H222.227L223.065 118ZM220.431 110.459H220.539L221.865 114.382H219.098L220.431 110.459ZM229.603 110.986C228.664 110.986 227.851 111.462 227.432 112.249H227.331V111.106H226.017V120.298H227.381V116.959H227.489C227.851 117.689 228.632 118.114 229.616 118.114C231.361 118.114 232.472 116.73 232.472 114.553C232.472 112.363 231.361 110.986 229.603 110.986ZM229.216 116.946C228.073 116.946 227.356 116.026 227.356 114.553C227.356 113.074 228.073 112.154 229.222 112.154C230.377 112.154 231.069 113.055 231.069 114.553C231.069 116.051 230.377 116.946 229.216 116.946ZM237.703 110.986C236.763 110.986 235.951 111.462 235.532 112.249H235.43V111.106H234.116V120.298H235.481V116.959H235.589C235.951 117.689 236.731 118.114 237.715 118.114C239.461 118.114 240.572 116.73 240.572 114.553C240.572 112.363 239.461 110.986 237.703 110.986ZM237.315 116.946C236.173 116.946 235.456 116.026 235.456 114.553C235.456 113.074 236.173 112.154 237.322 112.154C238.477 112.154 239.169 113.055 239.169 114.553C239.169 116.051 238.477 116.946 237.315 116.946ZM243.124 118.095C243.663 118.095 244.057 117.695 244.057 117.181C244.057 116.667 243.663 116.267 243.124 116.267C242.59 116.267 242.19 116.667 242.19 117.181C242.19 117.695 242.59 118.095 243.124 118.095ZM247.224 118.095C247.764 118.095 248.157 117.695 248.157 117.181C248.157 116.667 247.764 116.267 247.224 116.267C246.691 116.267 246.291 116.667 246.291 117.181C246.291 117.695 246.691 118.095 247.224 118.095ZM251.325 118.095C251.864 118.095 252.258 117.695 252.258 117.181C252.258 116.667 251.864 116.267 251.325 116.267C250.792 116.267 250.392 116.667 250.392 117.181C250.392 117.695 250.792 118.095 251.325 118.095Z" fill="var(--vscode-foreground)"/>
<rect x="60" y="127" width="230" height="6" rx="3" fill="var(--vscode-foreground)" fill-opacity="0.25"/>
<path d="M64.9067 157.222C66.9507 157.222 68.4551 156.048 68.709 154.264H67.2935C67.0396 155.305 66.1191 155.959 64.9067 155.959C63.2563 155.959 62.228 154.601 62.228 152.423C62.228 150.246 63.2563 148.881 64.9004 148.881C66.1064 148.881 67.0269 149.605 67.2935 150.741H68.709C68.4805 148.907 66.9189 147.618 64.9004 147.618C62.355 147.618 60.7744 149.459 60.7744 152.423C60.7744 155.381 62.3613 157.222 64.9067 157.222ZM70.4229 157H71.7876V152.88C71.7876 151.909 72.5176 151.243 73.5522 151.243C73.7935 151.243 74.1997 151.287 74.314 151.319V150.037C74.168 150.005 73.9077 149.986 73.7046 149.986C72.8032 149.986 72.0352 150.475 71.8384 151.154H71.7368V150.106H70.4229V157ZM79.9824 155.153C79.7285 155.711 79.1636 156.016 78.3384 156.016C77.2466 156.016 76.542 155.229 76.4976 153.979V153.915H81.3789V153.445C81.3789 151.287 80.2173 149.973 78.2939 149.973C76.3452 149.973 75.1074 151.376 75.1074 153.566C75.1074 155.769 76.3198 157.133 78.3003 157.133C79.8809 157.133 80.998 156.372 81.2964 155.153H79.9824ZM78.2876 151.084C79.2969 151.084 79.957 151.814 79.9888 152.931H76.4976C76.5737 151.82 77.2783 151.084 78.2876 151.084ZM84.9272 157.114C85.835 157.114 86.5903 156.721 87.0029 156.022H87.1108V157H88.4248V152.284C88.4248 150.836 87.4473 149.973 85.7144 149.973C84.1465 149.973 83.0293 150.729 82.8896 151.89H84.21C84.3623 151.389 84.8892 151.103 85.6509 151.103C86.584 151.103 87.0664 151.528 87.0664 152.284V152.887L85.1938 153.001C83.5498 153.103 82.623 153.82 82.623 155.058C82.623 156.314 83.5942 157.114 84.9272 157.114ZM85.2764 156.016C84.5337 156.016 83.9941 155.642 83.9941 155C83.9941 154.372 84.4258 154.036 85.3779 153.972L87.0664 153.858V154.455C87.0664 155.343 86.3047 156.016 85.2764 156.016ZM90.8496 148.367V150.125H89.7515V151.217H90.8496V155.185C90.8496 156.511 91.4526 157.044 92.9697 157.044C93.2363 157.044 93.4902 157.013 93.7124 156.975V155.889C93.522 155.908 93.4014 155.921 93.1919 155.921C92.5127 155.921 92.2144 155.597 92.2144 154.854V151.217H93.7124V150.125H92.2144V148.367H90.8496ZM99.7744 155.153C99.5205 155.711 98.9556 156.016 98.1304 156.016C97.0386 156.016 96.334 155.229 96.2896 153.979V153.915H101.171V153.445C101.171 151.287 100.009 149.973 98.0859 149.973C96.1372 149.973 94.8994 151.376 94.8994 153.566C94.8994 155.769 96.1118 157.133 98.0923 157.133C99.6729 157.133 100.79 156.372 101.088 155.153H99.7744ZM98.0796 151.084C99.0889 151.084 99.749 151.814 99.7808 152.931H96.2896C96.3657 151.82 97.0703 151.084 98.0796 151.084ZM106.522 147.84V157H109.829C112.559 157 114.139 155.312 114.139 152.398C114.139 149.516 112.546 147.84 109.829 147.84H106.522ZM107.944 149.065H109.67C111.568 149.065 112.692 150.303 112.692 152.417C112.692 154.55 111.587 155.775 109.67 155.775H107.944V149.065ZM117.795 157.114C118.703 157.114 119.458 156.721 119.871 156.022H119.979V157H121.293V152.284C121.293 150.836 120.315 149.973 118.583 149.973C117.015 149.973 115.897 150.729 115.758 151.89H117.078C117.23 151.389 117.757 151.103 118.519 151.103C119.452 151.103 119.935 151.528 119.935 152.284V152.887L118.062 153.001C116.418 153.103 115.491 153.82 115.491 155.058C115.491 156.314 116.462 157.114 117.795 157.114ZM118.145 156.016C117.402 156.016 116.862 155.642 116.862 155C116.862 154.372 117.294 154.036 118.246 153.972L119.935 153.858V154.455C119.935 155.343 119.173 156.016 118.145 156.016ZM123.718 148.367V150.125H122.62V151.217H123.718V155.185C123.718 156.511 124.321 157.044 125.838 157.044C126.104 157.044 126.358 157.013 126.581 156.975V155.889C126.39 155.908 126.27 155.921 126.06 155.921C125.381 155.921 125.083 155.597 125.083 154.854V151.217H126.581V150.125H125.083V148.367H123.718ZM130.097 157.114C131.005 157.114 131.76 156.721 132.173 156.022H132.281V157H133.595V152.284C133.595 150.836 132.617 149.973 130.884 149.973C129.316 149.973 128.199 150.729 128.06 151.89H129.38C129.532 151.389 130.059 151.103 130.821 151.103C131.754 151.103 132.236 151.528 132.236 152.284V152.887L130.364 153.001C128.72 153.103 127.793 153.82 127.793 155.058C127.793 156.314 128.764 157.114 130.097 157.114ZM130.446 156.016C129.704 156.016 129.164 155.642 129.164 155C129.164 154.372 129.596 154.036 130.548 153.972L132.236 153.858V154.455C132.236 155.343 131.475 156.016 130.446 156.016ZM139.2 157.114C140.945 157.114 142.056 155.724 142.056 153.553C142.056 151.363 140.952 149.986 139.2 149.986C138.254 149.986 137.441 150.449 137.073 151.198H136.965V147.402H135.601V157H136.915V155.908H137.016C137.429 156.67 138.235 157.114 139.2 157.114ZM138.806 151.154C139.961 151.154 140.653 152.062 140.653 153.553C140.653 155.045 139.961 155.946 138.806 155.946C137.657 155.946 136.946 155.032 136.94 153.553C136.946 152.074 137.664 151.154 138.806 151.154ZM145.611 157.114C146.519 157.114 147.274 156.721 147.687 156.022H147.794V157H149.108V152.284C149.108 150.836 148.131 149.973 146.398 149.973C144.83 149.973 143.713 150.729 143.573 151.89H144.894C145.046 151.389 145.573 151.103 146.334 151.103C147.268 151.103 147.75 151.528 147.75 152.284V152.887L145.877 153.001C144.233 153.103 143.307 153.82 143.307 155.058C143.307 156.314 144.278 157.114 145.611 157.114ZM145.96 156.016C145.217 156.016 144.678 155.642 144.678 155C144.678 154.372 145.109 154.036 146.062 153.972L147.75 153.858V154.455C147.75 155.343 146.988 156.016 145.96 156.016ZM150.892 152.036C150.892 153.058 151.501 153.642 152.815 153.947L154.021 154.232C154.713 154.397 155.037 154.677 155.037 155.108C155.037 155.673 154.434 156.067 153.583 156.067C152.758 156.067 152.25 155.73 152.079 155.191H150.714C150.835 156.391 151.908 157.133 153.552 157.133C155.202 157.133 156.415 156.264 156.415 154.981C156.415 153.979 155.799 153.414 154.485 153.109L153.336 152.842C152.587 152.665 152.238 152.398 152.238 151.973C152.238 151.414 152.815 151.04 153.577 151.04C154.352 151.04 154.847 151.376 154.974 151.89H156.281C156.148 150.697 155.132 149.973 153.577 149.973C152.016 149.973 150.892 150.836 150.892 152.036ZM162.591 155.153C162.337 155.711 161.772 156.016 160.947 156.016C159.855 156.016 159.15 155.229 159.106 153.979V153.915H163.987V153.445C163.987 151.287 162.826 149.973 160.902 149.973C158.954 149.973 157.716 151.376 157.716 153.566C157.716 155.769 158.928 157.133 160.909 157.133C162.489 157.133 163.606 156.372 163.905 155.153H162.591ZM160.896 151.084C161.905 151.084 162.565 151.814 162.597 152.931H159.106C159.182 151.82 159.887 151.084 160.896 151.084ZM168.907 154.556C169.008 156.181 170.373 157.222 172.404 157.222C174.575 157.222 175.934 156.13 175.934 154.397C175.934 153.026 175.159 152.271 173.28 151.82L172.271 151.573C171.078 151.281 170.595 150.9 170.595 150.233C170.595 149.376 171.344 148.824 172.468 148.824C173.534 148.824 174.271 149.357 174.404 150.227H175.788C175.705 148.697 174.347 147.618 172.487 147.618C170.487 147.618 169.154 148.697 169.154 150.31C169.154 151.643 169.91 152.43 171.566 152.83L172.747 153.115C173.959 153.407 174.493 153.852 174.493 154.569C174.493 155.407 173.655 156.01 172.512 156.01C171.287 156.01 170.437 155.445 170.316 154.556H168.907ZM182.18 155.153C181.926 155.711 181.361 156.016 180.536 156.016C179.444 156.016 178.739 155.229 178.695 153.979V153.915H183.576V153.445C183.576 151.287 182.415 149.973 180.491 149.973C178.542 149.973 177.305 151.376 177.305 153.566C177.305 155.769 178.517 157.133 180.498 157.133C182.078 157.133 183.195 156.372 183.494 155.153H182.18ZM180.485 151.084C181.494 151.084 182.154 151.814 182.186 152.931H178.695C178.771 151.82 179.476 151.084 180.485 151.084ZM185.214 157H186.579V152.88C186.579 151.909 187.309 151.243 188.343 151.243C188.584 151.243 188.991 151.287 189.105 151.319V150.037C188.959 150.005 188.699 149.986 188.496 149.986C187.594 149.986 186.826 150.475 186.629 151.154H186.528V150.106H185.214V157ZM196.31 150.106H194.862L193.148 155.604H193.041L191.32 150.106H189.86L192.355 157H193.821L196.31 150.106ZM201.959 155.153C201.705 155.711 201.14 156.016 200.315 156.016C199.223 156.016 198.519 155.229 198.474 153.979V153.915H203.355V153.445C203.355 151.287 202.194 149.973 200.271 149.973C198.322 149.973 197.084 151.376 197.084 153.566C197.084 155.769 198.296 157.133 200.277 157.133C201.857 157.133 202.975 156.372 203.273 155.153H201.959ZM200.264 151.084C201.273 151.084 201.934 151.814 201.965 152.931H198.474C198.55 151.82 199.255 151.084 200.264 151.084ZM204.993 157H206.358V152.88C206.358 151.909 207.088 151.243 208.123 151.243C208.364 151.243 208.77 151.287 208.884 151.319V150.037C208.738 150.005 208.478 149.986 208.275 149.986C207.374 149.986 206.605 150.475 206.409 151.154H206.307V150.106H204.993V157ZM210.332 157.095C210.871 157.095 211.265 156.695 211.265 156.181C211.265 155.667 210.871 155.267 210.332 155.267C209.798 155.267 209.398 155.667 209.398 156.181C209.398 156.695 209.798 157.095 210.332 157.095ZM214.432 157.095C214.972 157.095 215.365 156.695 215.365 156.181C215.365 155.667 214.972 155.267 214.432 155.267C213.899 155.267 213.499 155.667 213.499 156.181C213.499 156.695 213.899 157.095 214.432 157.095ZM218.533 157.095C219.072 157.095 219.466 156.695 219.466 156.181C219.466 155.667 219.072 155.267 218.533 155.267C218 155.267 217.6 155.667 217.6 156.181C217.6 156.695 218 157.095 218.533 157.095Z" fill="var(--vscode-foreground)"/>
<rect x="60" y="166" width="266" height="6" rx="3" fill="var(--vscode-foreground)" fill-opacity="0.25"/>
<rect x="60" y="188" width="194" height="6" rx="3" fill="var(--vscode-foreground)" fill-opacity="0.25"/>
<rect x="60" y="206" width="266" height="6" rx="3" fill="var(--vscode-foreground)" fill-opacity="0.25"/>
<rect x="60" y="228" width="126" height="6" rx="3" fill="var(--vscode-foreground)" fill-opacity="0.25"/>
<rect x="60" y="246" width="208" height="6" rx="3" fill="var(--vscode-foreground)" fill-opacity="0.25"/>
</g>
<defs>
<filter id="filter0_d_66_49866" x="32" y="6" width="457" height="280" filterUnits="userSpaceOnUse" color-interpolation-filters="sRGB">
<feFlood flood-opacity="0" result="BackgroundImageFix"/>
<feColorMatrix in="SourceAlpha" type="matrix" values="0 0 0 0 0 0 0 0 0 0 0 0 0 0 0 0 0 0 127 0" result="hardAlpha"/>
<feOffset dy="2"/>
<feGaussianBlur stdDeviation="8"/>
<feColorMatrix type="matrix" values="0 0 0 0 0 0 0 0 0 0 0 0 0 0 0 0 0 0 0.36 0"/>
<feBlend mode="normal" in2="BackgroundImageFix" result="effect1_dropShadow_66_49866"/>
<feBlend mode="normal" in="SourceGraphic" in2="effect1_dropShadow_66_49866" result="shape"/>
</filter>
<clipPath id="clip0_66_49866">
<rect width="115.654" height="39.2998" fill="white"/>
</clipPath>
</defs>
</svg>
