<svg width="412" height="374" viewBox="0 0 412 374" fill="none" xmlns="http://www.w3.org/2000/svg">
<g clip-path="url(#clip0_13_8432)">
<rect width="198" height="318" transform="translate(214 26)" fill="var(--vscode-editor-background, #1e1e1e)"/>
<rect width="336" height="35" transform="translate(214 26)" fill="var(--vscode-editorGroupHeader-tabsBackground, #252526)"/>
<rect width="103" height="35" transform="translate(214 26)" fill="var(--vscode-tab-activeBackground, #1e1e1e)"/>
<rect x="226" y="40" width="79" height="7" rx="3.5" fill="var(--vscode-foreground)" fill-opacity="0.25"/>
<rect x="257" y="79" width="55" height="7" rx="3.5" fill="var(--vscode-foreground)" fill-opacity="0.25"/>
<rect x="257" y="98" width="55" height="7" rx="3.5" fill="var(--vscode-foreground)" fill-opacity="0.25"/>
<rect x="257" y="155" width="72" height="7" rx="3.5" fill="var(--vscode-foreground)" fill-opacity="0.25"/>
<rect x="335" y="155" width="26" height="7" rx="3.5" fill="var(--vscode-foreground)" fill-opacity="0.25"/>
<rect x="257" y="275" width="72" height="7" rx="3.5" fill="var(--vscode-foreground)" fill-opacity="0.25"/>
<rect x="335" y="275" width="26" height="7" rx="3.5" fill="var(--vscode-foreground)" fill-opacity="0.25"/>
<rect x="274" y="174" width="30" height="7" rx="3.5" fill="var(--vscode-foreground)" fill-opacity="0.25"/>
<rect x="284" y="193" width="30" height="7" rx="3.5" fill="var(--vscode-foreground)" fill-opacity="0.25"/>
<rect x="320" y="193" width="41" height="7" rx="3.5" fill="var(--vscode-foreground)" fill-opacity="0.25"/>
<rect x="274" y="212" width="30" height="7" rx="3.5" fill="var(--vscode-foreground)" fill-opacity="0.25"/>
<rect x="265" y="231" width="31" height="7" rx="3.5" fill="var(--vscode-foreground)" fill-opacity="0.25"/>
<rect x="318" y="79" width="52" height="7" rx="3.5" fill="var(--vscode-foreground)" fill-opacity="0.25"/>
<rect x="318" y="98" width="74" height="7" rx="3.5" fill="var(--vscode-foreground)" fill-opacity="0.25"/>
<rect x="311" y="174" width="59" height="7" rx="3.5" fill="var(--vscode-foreground)" fill-opacity="0.25"/>
</g>
<g filter="url(#filter0_d_13_8432)">
<rect width="303" height="342" transform="translate(16 14)" fill="var(--vscode-sideBar-background)"/>
<path d="M36.9607 42.6072H38.0195L35.7016 36.1872H34.6294L32.3114 42.6072H33.3347L33.9264 40.8721H36.3734L36.9607 42.6072ZM35.1143 37.3217H35.19L36.1198 40.0712H34.18L35.1143 37.3217ZM38.9627 42.6072H43.7855V41.7485H40.2307V41.6729L43.701 36.8679V36.1872H39.0695V37.0459H42.4508V37.1215L38.9627 41.9265V42.6072ZM46.2058 36.1872H45.2092V40.396C45.2092 41.7841 46.2013 42.7629 47.8074 42.7629C49.4224 42.7629 50.4101 41.7841 50.4101 40.396V36.1872H49.4135V40.3159C49.4135 41.2324 48.8307 41.8775 47.8074 41.8775C46.7886 41.8775 46.2058 41.2324 46.2058 40.3159V36.1872ZM53.0128 40.138H54.4187L55.7267 42.6072H56.879L55.4375 39.9822C56.2206 39.7198 56.6833 39.0168 56.6833 38.1492C56.6833 36.9525 55.8513 36.1872 54.5566 36.1872H52.0162V42.6072H53.0128V40.138ZM53.0128 37.0236H54.4187C55.1884 37.0236 55.66 37.4552 55.66 38.1715C55.66 38.9056 55.2151 39.3193 54.4454 39.3193H53.0128V37.0236ZM62.1778 41.7485H59.0991V39.7509H62.0132V38.9234H59.0991V37.0459H62.1778V36.1872H58.1025V42.6072H62.1778V41.7485Z" fill="var(--vscode-foreground)"/>
<path d="M299.683 38.8928C299.683 39.0922 299.608 39.2667 299.459 39.4162C299.334 39.5408 299.172 39.6031 298.973 39.6031C298.773 39.6031 298.611 39.5408 298.487 39.4162C298.362 39.2667 298.3 39.0922 298.3 38.8928C298.3 38.6935 298.362 38.5315 298.487 38.4069C298.611 38.2574 298.773 38.1826 298.973 38.1826C299.172 38.1826 299.334 38.2574 299.459 38.4069C299.608 38.5315 299.683 38.6935 299.683 38.8928ZM303.197 38.8928C303.197 39.0922 303.122 39.2667 302.973 39.4162C302.848 39.5408 302.686 39.6031 302.487 39.6031C302.287 39.6031 302.113 39.5408 301.963 39.4162C301.839 39.2667 301.776 39.0922 301.776 38.8928C301.776 38.6935 301.839 38.5315 301.963 38.4069C302.113 38.2574 302.287 38.1826 302.487 38.1826C302.686 38.1826 302.848 38.2574 302.973 38.4069C303.122 38.5315 303.197 38.6935 303.197 38.8928ZM306.711 38.8928C306.711 39.0922 306.636 39.2667 306.486 39.4162C306.362 39.5408 306.2 39.6031 306 39.6031C305.801 39.6031 305.627 39.5408 305.477 39.4162C305.352 39.2667 305.29 39.0922 305.29 38.8928C305.29 38.6935 305.352 38.5315 305.477 38.4069C305.627 38.2574 305.801 38.1826 306 38.1826C306.2 38.1826 306.362 38.2574 306.486 38.4069C306.636 38.5315 306.711 38.6935 306.711 38.8928Z" fill="var(--vscode-foreground)"/>
<path d="M37.984 67.064L42.336 62.712L42.96 63.336L38.288 67.992H37.664L33.008 63.336L33.616 62.712L37.984 67.064Z" fill="#808080"/>
<rect x="54" y="61.5" width="71" height="7" rx="3.5" fill="var(--vscode-foreground)" fill-opacity="0.25"/>
<rect width="303" height="22" transform="translate(16 77)" fill="var(--vscode-list-activeSelectionBackground)"/>
<path d="M51.024 83.776V83.76L52.016 84.752V82.496L51.52 82H42.528L42.016 82.496V82.992H42V93.296L42.368 93.744L47.36 95.472L48 94.992V94H51.52L52.016 93.504V91.248L51.024 92.256V92.992H48V84.704L47.664 84.256L44.032 82.992H51.024V83.776ZM47.008 94.272L43.008 92.944V83.712L47.008 85.056V94.288V94.272ZM50.096 87.536H55.056V88.528H50.128L51.712 90.128L51.008 90.832L48.544 88.368V87.664L51.024 85.184L51.728 85.872L50.096 87.536Z" fill="var(--vscode-quickInputList-focusForeground, #E3E3E3)"/>
<path d="M62.7173 89.5562C62.8188 91.1812 64.1836 92.2222 66.2148 92.2222C68.3857 92.2222 69.7441 91.1304 69.7441 89.3975C69.7441 88.0264 68.9697 87.271 67.0908 86.8203L66.0815 86.5728C64.8882 86.2808 64.4058 85.8999 64.4058 85.2334C64.4058 84.3765 65.1548 83.8242 66.2783 83.8242C67.3447 83.8242 68.0811 84.3574 68.2144 85.2271H69.5981C69.5156 83.6973 68.1572 82.6182 66.2974 82.6182C64.2979 82.6182 62.9648 83.6973 62.9648 85.3096C62.9648 86.6426 63.7202 87.4297 65.377 87.8296L66.5576 88.1152C67.77 88.4072 68.3032 88.8516 68.3032 89.5688C68.3032 90.4067 67.4653 91.0098 66.3228 91.0098C65.0977 91.0098 64.2471 90.4448 64.1265 89.5562H62.7173ZM72.1626 83.875C72.6387 83.875 73.0259 83.4878 73.0259 83.0181C73.0259 82.542 72.6387 82.1548 72.1626 82.1548C71.6865 82.1548 71.2993 82.542 71.2993 83.0181C71.2993 83.4878 71.6865 83.875 72.1626 83.875ZM71.4834 92H72.8418V85.1064H71.4834V92ZM77.7612 94.6343C79.7163 94.6343 80.9541 93.6377 80.9541 92.0698V85.1064H79.6465V86.2046H79.5386C79.1514 85.4556 78.3198 84.9858 77.3677 84.9858C75.603 84.9858 74.4985 86.376 74.4985 88.4644C74.4985 90.5337 75.5903 91.8984 77.355 91.8984C78.3071 91.8984 79.0688 91.4858 79.4878 90.7368H79.5894V92.0635C79.5894 92.9966 78.9165 93.5552 77.7803 93.5552C76.8599 93.5552 76.2822 93.2251 76.168 92.7046H74.7715C74.9175 93.8662 76.0347 94.6343 77.7612 94.6343ZM77.7422 90.7686C76.5679 90.7686 75.9077 89.8735 75.9077 88.4644C75.9077 87.0552 76.5679 86.1538 77.7422 86.1538C78.9038 86.1538 79.6147 87.0552 79.6147 88.4644C79.6147 89.8735 78.9102 90.7686 77.7422 90.7686ZM82.9346 92H84.2993V87.9565C84.2993 86.8457 84.9404 86.1602 85.9497 86.1602C86.959 86.1602 87.4414 86.7188 87.4414 87.8613V92H88.8062V87.5376C88.8062 85.8936 87.9556 84.9731 86.4131 84.9731C85.3721 84.9731 84.6865 85.4365 84.3501 86.1982H84.2485V85.1064H82.9346V92ZM94.9888 83.875C95.4648 83.875 95.8521 83.4878 95.8521 83.0181C95.8521 82.542 95.4648 82.1548 94.9888 82.1548C94.5127 82.1548 94.1255 82.542 94.1255 83.0181C94.1255 83.4878 94.5127 83.875 94.9888 83.875ZM94.3096 92H95.668V85.1064H94.3096V92ZM97.6738 92H99.0386V87.9565C99.0386 86.8457 99.6797 86.1602 100.689 86.1602C101.698 86.1602 102.181 86.7188 102.181 87.8613V92H103.545V87.5376C103.545 85.8936 102.695 84.9731 101.152 84.9731C100.111 84.9731 99.4258 85.4365 99.0894 86.1982H98.9878V85.1064H97.6738V92ZM109.506 83.3672V85.1255H108.408V86.2173H109.506V90.1846C109.506 91.5112 110.109 92.0444 111.626 92.0444C111.893 92.0444 112.146 92.0127 112.369 91.9746V90.8892C112.178 90.9082 112.058 90.9209 111.848 90.9209C111.169 90.9209 110.871 90.5972 110.871 89.8545V86.2173H112.369V85.1255H110.871V83.3672H109.506ZM116.818 92.1333C118.837 92.1333 120.075 90.7812 120.075 88.5532C120.075 86.3252 118.831 84.9731 116.818 84.9731C114.8 84.9731 113.556 86.3315 113.556 88.5532C113.556 90.7812 114.793 92.1333 116.818 92.1333ZM116.818 90.9717C115.631 90.9717 114.965 90.0894 114.965 88.5532C114.965 87.0171 115.631 86.1284 116.818 86.1284C117.999 86.1284 118.672 87.0171 118.672 88.5532C118.672 90.083 117.999 90.9717 116.818 90.9717ZM131.361 92H132.872L129.564 82.8403H128.035L124.728 92H126.188L127.032 89.5244H130.523L131.361 92ZM128.727 84.459H128.834L130.161 88.3818H127.394L128.727 84.459ZM134.027 92H139.499V90.9019H135.741V90.7939L139.46 86.0522V85.1064H134.052V86.2046H137.829V86.3062L134.027 91.105V92ZM147.147 85.1064H145.783V89.1499C145.783 90.2607 145.18 90.9336 144.075 90.9336C143.072 90.9336 142.622 90.3877 142.622 89.2451V85.1064H141.257V89.5815C141.257 91.2002 142.107 92.1333 143.637 92.1333C144.685 92.1333 145.389 91.689 145.726 90.9082H145.833V92H147.147V85.1064ZM149.128 92H150.493V87.8804C150.493 86.9092 151.223 86.2427 152.257 86.2427C152.499 86.2427 152.905 86.2871 153.019 86.3188V85.0366C152.873 85.0049 152.613 84.9858 152.41 84.9858C151.508 84.9858 150.74 85.4746 150.543 86.1538H150.442V85.1064H149.128V92ZM158.688 90.1528C158.434 90.7114 157.869 91.0161 157.043 91.0161C155.952 91.0161 155.247 90.229 155.203 88.9785V88.915H160.084V88.4453C160.084 86.2871 158.922 84.9731 156.999 84.9731C155.05 84.9731 153.812 86.376 153.812 88.5659C153.812 90.7686 155.025 92.1333 157.005 92.1333C158.586 92.1333 159.703 91.3716 160.001 90.1528H158.688ZM156.993 86.084C158.002 86.084 158.662 86.814 158.694 87.9312H155.203C155.279 86.8203 155.983 86.084 156.993 86.084ZM162.782 92.0952C163.321 92.0952 163.715 91.6953 163.715 91.1812C163.715 90.667 163.321 90.2671 162.782 90.2671C162.249 90.2671 161.849 90.667 161.849 91.1812C161.849 91.6953 162.249 92.0952 162.782 92.0952ZM166.882 92.0952C167.422 92.0952 167.815 91.6953 167.815 91.1812C167.815 90.667 167.422 90.2671 166.882 90.2671C166.349 90.2671 165.949 90.667 165.949 91.1812C165.949 91.6953 166.349 92.0952 166.882 92.0952ZM170.983 92.0952C171.522 92.0952 171.916 91.6953 171.916 91.1812C171.916 90.667 171.522 90.2671 170.983 90.2671C170.45 90.2671 170.05 90.667 170.05 91.1812C170.05 91.6953 170.45 92.0952 170.983 92.0952Z" fill="var(--vscode-quickInputList-focusForeground, #E3E3E3)"/>
<path d="M54 108.992V110H48V116H47.008V110H41.008V108.992H47.008V102.992H48V108.992H54Z" fill="var(--vscode-foreground)"/>
<path d="M66.9067 114.222C68.9507 114.222 70.4551 113.048 70.709 111.264H69.2935C69.0396 112.305 68.1191 112.959 66.9067 112.959C65.2563 112.959 64.228 111.601 64.228 109.423C64.228 107.246 65.2563 105.881 66.9004 105.881C68.1064 105.881 69.0269 106.605 69.2935 107.741H70.709C70.4805 105.907 68.9189 104.618 66.9004 104.618C64.355 104.618 62.7744 106.459 62.7744 109.423C62.7744 112.381 64.3613 114.222 66.9067 114.222ZM72.4229 114H73.7876V109.88C73.7876 108.909 74.5176 108.243 75.5522 108.243C75.7935 108.243 76.1997 108.287 76.314 108.319V107.037C76.168 107.005 75.9077 106.986 75.7046 106.986C74.8032 106.986 74.0352 107.475 73.8384 108.154H73.7368V107.106H72.4229V114ZM81.9824 112.153C81.7285 112.711 81.1636 113.016 80.3384 113.016C79.2466 113.016 78.542 112.229 78.4976 110.979V110.915H83.3789V110.445C83.3789 108.287 82.2173 106.973 80.2939 106.973C78.3452 106.973 77.1074 108.376 77.1074 110.566C77.1074 112.769 78.3198 114.133 80.3003 114.133C81.8809 114.133 82.998 113.372 83.2964 112.153H81.9824ZM80.2876 108.084C81.2969 108.084 81.957 108.814 81.9888 109.931H78.4976C78.5737 108.82 79.2783 108.084 80.2876 108.084ZM86.9272 114.114C87.835 114.114 88.5903 113.721 89.0029 113.022H89.1108V114H90.4248V109.284C90.4248 107.836 89.4473 106.973 87.7144 106.973C86.1465 106.973 85.0293 107.729 84.8896 108.89H86.21C86.3623 108.389 86.8892 108.103 87.6509 108.103C88.584 108.103 89.0664 108.528 89.0664 109.284V109.887L87.1938 110.001C85.5498 110.103 84.623 110.82 84.623 112.058C84.623 113.314 85.5942 114.114 86.9272 114.114ZM87.2764 113.016C86.5337 113.016 85.9941 112.642 85.9941 112C85.9941 111.372 86.4258 111.036 87.3779 110.972L89.0664 110.858V111.455C89.0664 112.343 88.3047 113.016 87.2764 113.016ZM92.8496 105.367V107.125H91.7515V108.217H92.8496V112.185C92.8496 113.511 93.4526 114.044 94.9697 114.044C95.2363 114.044 95.4902 114.013 95.7124 113.975V112.889C95.522 112.908 95.4014 112.921 95.1919 112.921C94.5127 112.921 94.2144 112.597 94.2144 111.854V108.217H95.7124V107.125H94.2144V105.367H92.8496ZM101.774 112.153C101.521 112.711 100.956 113.016 100.13 113.016C99.0386 113.016 98.334 112.229 98.2896 110.979V110.915H103.171V110.445C103.171 108.287 102.009 106.973 100.086 106.973C98.1372 106.973 96.8994 108.376 96.8994 110.566C96.8994 112.769 98.1118 114.133 100.092 114.133C101.673 114.133 102.79 113.372 103.088 112.153H101.774ZM100.08 108.084C101.089 108.084 101.749 108.814 101.781 109.931H98.2896C98.3657 108.82 99.0703 108.084 100.08 108.084ZM110.274 114.114C111.182 114.114 111.937 113.721 112.35 113.022H112.458V114H113.771V109.284C113.771 107.836 112.794 106.973 111.061 106.973C109.493 106.973 108.376 107.729 108.236 108.89H109.557C109.709 108.389 110.236 108.103 110.998 108.103C111.931 108.103 112.413 108.528 112.413 109.284V109.887L110.541 110.001C108.896 110.103 107.97 110.82 107.97 112.058C107.97 113.314 108.941 114.114 110.274 114.114ZM110.623 113.016C109.88 113.016 109.341 112.642 109.341 112C109.341 111.372 109.772 111.036 110.725 110.972L112.413 110.858V111.455C112.413 112.343 111.651 113.016 110.623 113.016ZM115.714 114H117.079V109.957C117.079 108.846 117.72 108.16 118.729 108.16C119.738 108.16 120.221 108.719 120.221 109.861V114H121.585V109.538C121.585 107.894 120.735 106.973 119.192 106.973C118.151 106.973 117.466 107.437 117.129 108.198H117.028V107.106H115.714V114ZM133.151 114H134.662L131.354 104.84H129.825L126.518 114H127.978L128.822 111.524H132.313L133.151 114ZM130.517 106.459H130.625L131.951 110.382H129.184L130.517 106.459ZM135.817 114H141.289V112.902H137.531V112.794L141.25 108.052V107.106H135.842V108.205H139.619V108.306L135.817 113.105V114ZM148.938 107.106H147.573V111.15C147.573 112.261 146.97 112.934 145.865 112.934C144.862 112.934 144.412 112.388 144.412 111.245V107.106H143.047V111.582C143.047 113.2 143.897 114.133 145.427 114.133C146.475 114.133 147.179 113.689 147.516 112.908H147.624V114H148.938V107.106ZM150.918 114H152.283V109.88C152.283 108.909 153.013 108.243 154.047 108.243C154.289 108.243 154.695 108.287 154.809 108.319V107.037C154.663 107.005 154.403 106.986 154.2 106.986C153.298 106.986 152.53 107.475 152.333 108.154H152.232V107.106H150.918V114ZM160.478 112.153C160.224 112.711 159.659 113.016 158.833 113.016C157.742 113.016 157.037 112.229 156.993 110.979V110.915H161.874V110.445C161.874 108.287 160.712 106.973 158.789 106.973C156.84 106.973 155.603 108.376 155.603 110.566C155.603 112.769 156.815 114.133 158.795 114.133C160.376 114.133 161.493 113.372 161.792 112.153H160.478ZM158.783 108.084C159.792 108.084 160.452 108.814 160.484 109.931H156.993C157.069 108.82 157.773 108.084 158.783 108.084ZM173.154 114H174.665L171.357 104.84H169.828L166.521 114H167.98L168.825 111.524H172.316L173.154 114ZM170.52 106.459H170.627L171.954 110.382H169.187L170.52 106.459ZM181.577 109.322C181.399 107.982 180.352 106.973 178.619 106.973C176.607 106.973 175.382 108.338 175.382 110.528C175.382 112.762 176.613 114.133 178.625 114.133C180.333 114.133 181.399 113.175 181.577 111.816H180.25C180.073 112.565 179.482 112.972 178.619 112.972C177.483 112.972 176.778 112.051 176.778 110.528C176.778 109.036 177.477 108.135 178.619 108.135C179.533 108.135 180.092 108.649 180.25 109.322H181.577ZM188.991 109.322C188.813 107.982 187.766 106.973 186.033 106.973C184.021 106.973 182.796 108.338 182.796 110.528C182.796 112.762 184.027 114.133 186.04 114.133C187.747 114.133 188.813 113.175 188.991 111.816H187.665C187.487 112.565 186.896 112.972 186.033 112.972C184.897 112.972 184.192 112.051 184.192 110.528C184.192 109.036 184.891 108.135 186.033 108.135C186.947 108.135 187.506 108.649 187.665 109.322H188.991ZM193.473 114.133C195.491 114.133 196.729 112.781 196.729 110.553C196.729 108.325 195.485 106.973 193.473 106.973C191.454 106.973 190.21 108.332 190.21 110.553C190.21 112.781 191.448 114.133 193.473 114.133ZM193.473 112.972C192.286 112.972 191.619 112.089 191.619 110.553C191.619 109.017 192.286 108.128 193.473 108.128C194.653 108.128 195.326 109.017 195.326 110.553C195.326 112.083 194.653 112.972 193.473 112.972ZM204.2 107.106H202.835V111.15C202.835 112.261 202.232 112.934 201.128 112.934C200.125 112.934 199.674 112.388 199.674 111.245V107.106H198.31V111.582C198.31 113.2 199.16 114.133 200.69 114.133C201.737 114.133 202.442 113.689 202.778 112.908H202.886V114H204.2V107.106ZM206.181 114H207.545V109.957C207.545 108.846 208.187 108.16 209.196 108.16C210.205 108.16 210.688 108.719 210.688 109.861V114H212.052V109.538C212.052 107.894 211.202 106.973 209.659 106.973C208.618 106.973 207.933 107.437 207.596 108.198H207.495V107.106H206.181V114ZM214.458 105.367V107.125H213.36V108.217H214.458V112.185C214.458 113.511 215.061 114.044 216.578 114.044C216.845 114.044 217.099 114.013 217.321 113.975V112.889C217.13 112.908 217.01 112.921 216.8 112.921C216.121 112.921 215.823 112.597 215.823 111.854V108.217H217.321V107.125H215.823V105.367H214.458Z" fill="var(--vscode-foreground)"/>
<path d="M54.9867 129.653L48.16 126.987H47.84L41.0133 129.653V136H42.0267V130.987L44.32 131.893C43.7867 132.64 43.52 133.476 43.52 134.4V134.827L43.7867 135.2L47.7867 137.013H48.2133L52.1067 135.2L52.4267 134.773V134.347C52.4267 133.458 52.16 132.64 51.6267 131.893L54.9867 130.56V129.653ZM51.4667 134.347V134.4L48 136L44.48 134.4V134.347C44.5156 133.564 44.7644 132.853 45.2267 132.213L47.84 133.227H48.2133L50.7733 132.213C51.2356 132.853 51.4667 133.564 51.4667 134.347ZM48 132.267L42.5067 130.133L48 128L53.4933 130.133L48 132.267Z" fill="var(--vscode-foreground)"/>
<path d="M66.9067 136.222C68.9507 136.222 70.4551 135.048 70.709 133.264H69.2935C69.0396 134.305 68.1191 134.959 66.9067 134.959C65.2563 134.959 64.228 133.601 64.228 131.423C64.228 129.246 65.2563 127.881 66.9004 127.881C68.1064 127.881 69.0269 128.605 69.2935 129.741H70.709C70.4805 127.907 68.9189 126.618 66.9004 126.618C64.355 126.618 62.7744 128.459 62.7744 131.423C62.7744 134.381 64.3613 136.222 66.9067 136.222ZM72.4229 136H73.7876V131.88C73.7876 130.909 74.5176 130.243 75.5522 130.243C75.7935 130.243 76.1997 130.287 76.314 130.319V129.037C76.168 129.005 75.9077 128.986 75.7046 128.986C74.8032 128.986 74.0352 129.475 73.8384 130.154H73.7368V129.106H72.4229V136ZM81.9824 134.153C81.7285 134.711 81.1636 135.016 80.3384 135.016C79.2466 135.016 78.542 134.229 78.4976 132.979V132.915H83.3789V132.445C83.3789 130.287 82.2173 128.973 80.2939 128.973C78.3452 128.973 77.1074 130.376 77.1074 132.566C77.1074 134.769 78.3198 136.133 80.3003 136.133C81.8809 136.133 82.998 135.372 83.2964 134.153H81.9824ZM80.2876 130.084C81.2969 130.084 81.957 130.814 81.9888 131.931H78.4976C78.5737 130.82 79.2783 130.084 80.2876 130.084ZM86.9272 136.114C87.835 136.114 88.5903 135.721 89.0029 135.022H89.1108V136H90.4248V131.284C90.4248 129.836 89.4473 128.973 87.7144 128.973C86.1465 128.973 85.0293 129.729 84.8896 130.89H86.21C86.3623 130.389 86.8892 130.103 87.6509 130.103C88.584 130.103 89.0664 130.528 89.0664 131.284V131.887L87.1938 132.001C85.5498 132.103 84.623 132.82 84.623 134.058C84.623 135.314 85.5942 136.114 86.9272 136.114ZM87.2764 135.016C86.5337 135.016 85.9941 134.642 85.9941 134C85.9941 133.372 86.4258 133.036 87.3779 132.972L89.0664 132.858V133.455C89.0664 134.343 88.3047 135.016 87.2764 135.016ZM92.8496 127.367V129.125H91.7515V130.217H92.8496V134.185C92.8496 135.511 93.4526 136.044 94.9697 136.044C95.2363 136.044 95.4902 136.013 95.7124 135.975V134.889C95.522 134.908 95.4014 134.921 95.1919 134.921C94.5127 134.921 94.2144 134.597 94.2144 133.854V130.217H95.7124V129.125H94.2144V127.367H92.8496ZM101.774 134.153C101.521 134.711 100.956 135.016 100.13 135.016C99.0386 135.016 98.334 134.229 98.2896 132.979V132.915H103.171V132.445C103.171 130.287 102.009 128.973 100.086 128.973C98.1372 128.973 96.8994 130.376 96.8994 132.566C96.8994 134.769 98.1118 136.133 100.092 136.133C101.673 136.133 102.79 135.372 103.088 134.153H101.774ZM100.08 130.084C101.089 130.084 101.749 130.814 101.781 131.931H98.2896C98.3657 130.82 99.0703 130.084 100.08 130.084ZM110.274 136.114C111.182 136.114 111.937 135.721 112.35 135.022H112.458V136H113.771V131.284C113.771 129.836 112.794 128.973 111.061 128.973C109.493 128.973 108.376 129.729 108.236 130.89H109.557C109.709 130.389 110.236 130.103 110.998 130.103C111.931 130.103 112.413 130.528 112.413 131.284V131.887L110.541 132.001C108.896 132.103 107.97 132.82 107.97 134.058C107.97 135.314 108.941 136.114 110.274 136.114ZM110.623 135.016C109.88 135.016 109.341 134.642 109.341 134C109.341 133.372 109.772 133.036 110.725 132.972L112.413 132.858V133.455C112.413 134.343 111.651 135.016 110.623 135.016ZM115.714 136H117.079V131.957C117.079 130.846 117.72 130.16 118.729 130.16C119.738 130.16 120.221 130.719 120.221 131.861V136H121.585V131.538C121.585 129.894 120.735 128.973 119.192 128.973C118.151 128.973 117.466 129.437 117.129 130.198H117.028V129.106H115.714V136ZM133.151 136H134.662L131.354 126.84H129.825L126.518 136H127.978L128.822 133.524H132.313L133.151 136ZM130.517 128.459H130.625L131.951 132.382H129.184L130.517 128.459ZM135.817 136H141.289V134.902H137.531V134.794L141.25 130.052V129.106H135.842V130.205H139.619V130.306L135.817 135.105V136ZM148.938 129.106H147.573V133.15C147.573 134.261 146.97 134.934 145.865 134.934C144.862 134.934 144.412 134.388 144.412 133.245V129.106H143.047V133.582C143.047 135.2 143.897 136.133 145.427 136.133C146.475 136.133 147.179 135.689 147.516 134.908H147.624V136H148.938V129.106ZM150.918 136H152.283V131.88C152.283 130.909 153.013 130.243 154.047 130.243C154.289 130.243 154.695 130.287 154.809 130.319V129.037C154.663 129.005 154.403 128.986 154.2 128.986C153.298 128.986 152.53 129.475 152.333 130.154H152.232V129.106H150.918V136ZM160.478 134.153C160.224 134.711 159.659 135.016 158.833 135.016C157.742 135.016 157.037 134.229 156.993 132.979V132.915H161.874V132.445C161.874 130.287 160.712 128.973 158.789 128.973C156.84 128.973 155.603 130.376 155.603 132.566C155.603 134.769 156.815 136.133 158.795 136.133C160.376 136.133 161.493 135.372 161.792 134.153H160.478ZM158.783 130.084C159.792 130.084 160.452 130.814 160.484 131.931H156.993C157.069 130.82 157.773 130.084 158.783 130.084ZM167.555 136H168.92V130.217H170.443V129.125H168.901V128.446C168.901 127.748 169.212 127.399 169.974 127.399C170.189 127.399 170.374 127.412 170.5 127.431V126.402C170.266 126.364 169.999 126.339 169.688 126.339C168.253 126.339 167.555 127.012 167.555 128.383V129.125H166.419V130.217H167.555V136ZM174.646 136.133C176.664 136.133 177.902 134.781 177.902 132.553C177.902 130.325 176.658 128.973 174.646 128.973C172.627 128.973 171.383 130.332 171.383 132.553C171.383 134.781 172.621 136.133 174.646 136.133ZM174.646 134.972C173.458 134.972 172.792 134.089 172.792 132.553C172.792 131.017 173.458 130.128 174.646 130.128C175.826 130.128 176.499 131.017 176.499 132.553C176.499 134.083 175.826 134.972 174.646 134.972ZM179.546 136H180.911V131.88C180.911 130.909 181.641 130.243 182.675 130.243C182.917 130.243 183.323 130.287 183.437 130.319V129.037C183.291 129.005 183.031 128.986 182.828 128.986C181.926 128.986 181.158 129.475 180.961 130.154H180.86V129.106H179.546V136ZM188.033 133.556C188.134 135.181 189.499 136.222 191.53 136.222C193.701 136.222 195.06 135.13 195.06 133.397C195.06 132.026 194.285 131.271 192.406 130.82L191.397 130.573C190.204 130.281 189.721 129.9 189.721 129.233C189.721 128.376 190.47 127.824 191.594 127.824C192.66 127.824 193.396 128.357 193.53 129.227H194.914C194.831 127.697 193.473 126.618 191.613 126.618C189.613 126.618 188.28 127.697 188.28 129.31C188.28 130.643 189.036 131.43 190.692 131.83L191.873 132.115C193.085 132.407 193.619 132.852 193.619 133.569C193.619 134.407 192.781 135.01 191.638 135.01C190.413 135.01 189.562 134.445 189.442 133.556H188.033ZM197.256 127.367V129.125H196.158V130.217H197.256V134.185C197.256 135.511 197.859 136.044 199.376 136.044C199.643 136.044 199.896 136.013 200.119 135.975V134.889C199.928 134.908 199.808 134.921 199.598 134.921C198.919 134.921 198.621 134.597 198.621 133.854V130.217H200.119V129.125H198.621V127.367H197.256ZM207.552 129.106H206.187V133.15C206.187 134.261 205.584 134.934 204.479 134.934C203.477 134.934 203.026 134.388 203.026 133.245V129.106H201.661V133.582C201.661 135.2 202.512 136.133 204.042 136.133C205.089 136.133 205.793 135.689 206.13 134.908H206.238V136H207.552V129.106ZM212.059 136.114C213.011 136.114 213.817 135.664 214.229 134.908H214.337V136H215.645V126.402H214.28V130.198H214.179C213.804 129.443 213.004 128.986 212.059 128.986C210.313 128.986 209.189 130.376 209.189 132.547C209.189 134.73 210.3 136.114 212.059 136.114ZM212.446 130.154C213.588 130.154 214.306 131.081 214.306 132.553C214.306 134.039 213.595 134.946 212.446 134.946C211.291 134.946 210.599 134.051 210.599 132.553C210.599 131.062 211.297 130.154 212.446 130.154ZM222.228 134.153C221.974 134.711 221.409 135.016 220.583 135.016C219.492 135.016 218.787 134.229 218.743 132.979V132.915H223.624V132.445C223.624 130.287 222.462 128.973 220.539 128.973C218.59 128.973 217.353 130.376 217.353 132.566C217.353 134.769 218.565 136.133 220.545 136.133C222.126 136.133 223.243 135.372 223.542 134.153H222.228ZM220.533 130.084C221.542 130.084 222.202 130.814 222.234 131.931H218.743C218.819 130.82 219.523 130.084 220.533 130.084ZM225.262 136H226.626V131.957C226.626 130.846 227.268 130.16 228.277 130.16C229.286 130.16 229.769 130.719 229.769 131.861V136H231.133V131.538C231.133 129.894 230.283 128.973 228.74 128.973C227.699 128.973 227.014 129.437 226.677 130.198H226.576V129.106H225.262V136ZM233.539 127.367V129.125H232.441V130.217H233.539V134.185C233.539 135.511 234.142 136.044 235.659 136.044C235.926 136.044 236.18 136.013 236.402 135.975V134.889C236.211 134.908 236.091 134.921 235.881 134.921C235.202 134.921 234.904 134.597 234.904 133.854V130.217H236.402V129.125H234.904V127.367H233.539ZM237.748 131.036C237.748 132.058 238.357 132.642 239.671 132.947L240.877 133.232C241.569 133.397 241.893 133.677 241.893 134.108C241.893 134.673 241.29 135.067 240.439 135.067C239.614 135.067 239.106 134.73 238.935 134.191H237.57C237.69 135.391 238.763 136.133 240.407 136.133C242.058 136.133 243.27 135.264 243.27 133.981C243.27 132.979 242.654 132.414 241.34 132.109L240.191 131.842C239.442 131.665 239.093 131.398 239.093 130.973C239.093 130.414 239.671 130.04 240.433 130.04C241.207 130.04 241.702 130.376 241.829 130.89H243.137C243.003 129.697 241.988 128.973 240.433 128.973C238.871 128.973 237.748 129.836 237.748 131.036ZM254.556 136H256.067L252.76 126.84H251.23L247.923 136H249.383L250.227 133.524H253.718L254.556 136ZM251.922 128.459H252.03L253.356 132.382H250.589L251.922 128.459ZM262.979 131.322C262.802 129.982 261.754 128.973 260.021 128.973C258.009 128.973 256.784 130.338 256.784 132.528C256.784 134.762 258.016 136.133 260.028 136.133C261.735 136.133 262.802 135.175 262.979 133.816H261.653C261.475 134.565 260.885 134.972 260.021 134.972C258.885 134.972 258.181 134.051 258.181 132.528C258.181 131.036 258.879 130.135 260.021 130.135C260.936 130.135 261.494 130.649 261.653 131.322H262.979ZM270.394 131.322C270.216 129.982 269.168 128.973 267.436 128.973C265.423 128.973 264.198 130.338 264.198 132.528C264.198 134.762 265.43 136.133 267.442 136.133C269.149 136.133 270.216 135.175 270.394 133.816H269.067C268.889 134.565 268.299 134.972 267.436 134.972C266.299 134.972 265.595 134.051 265.595 132.528C265.595 131.036 266.293 130.135 267.436 130.135C268.35 130.135 268.908 130.649 269.067 131.322H270.394ZM274.875 136.133C276.894 136.133 278.131 134.781 278.131 132.553C278.131 130.325 276.887 128.973 274.875 128.973C272.856 128.973 271.612 130.332 271.612 132.553C271.612 134.781 272.85 136.133 274.875 136.133ZM274.875 134.972C273.688 134.972 273.021 134.089 273.021 132.553C273.021 131.017 273.688 130.128 274.875 130.128C276.056 130.128 276.729 131.017 276.729 132.553C276.729 134.083 276.056 134.972 274.875 134.972ZM285.603 129.106H284.238V133.15C284.238 134.261 283.635 134.934 282.53 134.934C281.527 134.934 281.077 134.388 281.077 133.245V129.106H279.712V133.582C279.712 135.2 280.562 136.133 282.092 136.133C283.14 136.133 283.844 135.689 284.181 134.908H284.289V136H285.603V129.106ZM287.583 136H288.948V131.957C288.948 130.846 289.589 130.16 290.598 130.16C291.607 130.16 292.09 130.719 292.09 131.861V136H293.455V131.538C293.455 129.894 292.604 128.973 291.062 128.973C290.021 128.973 289.335 129.437 288.999 130.198H288.897V129.106H287.583V136ZM295.86 127.367V129.125H294.762V130.217H295.86V134.185C295.86 135.511 296.463 136.044 297.98 136.044C298.247 136.044 298.501 136.013 298.723 135.975V134.889C298.533 134.908 298.412 134.921 298.203 134.921C297.523 134.921 297.225 134.597 297.225 133.854V130.217H298.723V129.125H297.225V127.367H295.86Z" fill="var(--vscode-foreground)"/>
</g>
<defs>
<filter id="filter0_d_13_8432" x="0" y="0" width="335" height="374" filterUnits="userSpaceOnUse" color-interpolation-filters="sRGB">
<feFlood flood-opacity="0" result="BackgroundImageFix"/>
<feColorMatrix in="SourceAlpha" type="matrix" values="0 0 0 0 0 0 0 0 0 0 0 0 0 0 0 0 0 0 127 0" result="hardAlpha"/>
<feOffset dy="2"/>
<feGaussianBlur stdDeviation="8"/>
<feColorMatrix type="matrix" values="0 0 0 0 0 0 0 0 0 0 0 0 0 0 0 0 0 0 0.36 0"/>
<feBlend mode="normal" in2="BackgroundImageFix" result="effect1_dropShadow_13_8432"/>
<feBlend mode="normal" in="SourceGraphic" in2="effect1_dropShadow_13_8432" result="shape"/>
</filter>
<clipPath id="clip0_13_8432">
<rect width="198" height="318" fill="white" transform="translate(214 26)"/>
</clipPath>
</defs>
</svg>
