<?xml version="1.0" encoding="UTF-8"?>
<svg id="Layer_2" data-name="Layer 2" xmlns="http://www.w3.org/2000/svg" xmlns:xlink="http://www.w3.org/1999/xlink" viewBox="0 0 95.02 126">
  <defs>
    <style>
      .cls-1 {
        fill: #1e89b2;
      }

      .cls-2 {
        fill: #8ec8e7;
      }

      .cls-3 {
        fill: url(#linear-gradient);
      }

      .cls-4 {
        fill: #e2e2e2;
      }

      .cls-5 {
        fill: #f3f3f3;
      }
    </style>
    <linearGradient id="linear-gradient" x1="1186" y1="-1067.36" x2="1281.02" y2="-1067.36" gradientTransform="translate(-1186 -995.77) scale(1 -1)" gradientUnits="userSpaceOnUse">
      <stop offset="0" stop-color="#005da1"/>
      <stop offset=".07" stop-color="#0562aa"/>
      <stop offset=".36" stop-color="#2772b9"/>
      <stop offset=".52" stop-color="#3077bb"/>
      <stop offset=".64" stop-color="#2c74b9"/>
      <stop offset=".82" stop-color="#186cb5"/>
      <stop offset="1" stop-color="#005da1"/>
    </linearGradient>
  </defs>
  <g id="Layer_1-2" data-name="Layer 1">
    <g>
      <path class="cls-3" d="M47.51,34.39C21.28,34.39,0,26.98,0,17.19v91.61c0,9.41,20.89,17.05,46.84,17.19h.67c26.23,0,47.51-7.41,47.51-17.19V17.19c0,9.56-21.28,17.19-47.51,17.19Z"/>
      <path class="cls-4" d="M95.02,17.19c0,9.56-21.28,17.19-47.51,17.19S0,26.98,0,17.19,21.28,0,47.51,0s47.51,7.41,47.51,17.19"/>
      <path class="cls-2" d="M83.98,15.79c0,6.08-16.4,10.97-36.47,10.97S11.04,21.86,11.04,15.79,27.44,4.89,47.51,4.89s36.47,4.89,36.47,10.89"/>
      <path class="cls-1" d="M76.35,22.46c-9.32-2.9-19.06-4.23-28.83-3.93-9.66-.25-19.28,1.15-28.46,4.11,6.7,2.51,16.97,4.11,28.46,4.11,5.83,0,11.34-.41,16.23-1.15,4.27-.72,8.48-1.76,12.6-3.15Z"/>
      <g>
        <path class="cls-5" d="M37.29,101.53c-4.05,0-6.99-.74-8.82-2.23-1.84-1.48-2.76-4.13-2.76-7.93v-6.68c0-3.41-1.41-5.12-4.23-5.12v-5.12c2.82,0,4.23-1.77,4.23-5.32v-6.21c0-3.82.91-6.51,2.73-8.06,1.82-1.55,4.77-2.32,8.85-2.32v5.21c-2.97,0-4.45,1.61-4.45,4.84v5.93c0,4.45-1.43,7.27-4.29,8.43v.11c2.86,1.15,4.29,4,4.29,8.55v5.71c0,1.82.35,3.11,1.04,3.87.7.76,1.83,1.14,3.41,1.14v5.21Z"/>
        <path class="cls-5" d="M73.54,79.57c-2.84,0-4.26,1.74-4.26,5.21v6.43c0,3.92-.9,6.62-2.71,8.1-1.81,1.48-4.75,2.23-8.81,2.23v-5.21c1.56,0,2.69-.38,3.4-1.13.71-.75,1.06-2.03,1.06-3.83v-5.93c0-4.44,1.42-7.21,4.26-8.32v-.11c-2.84-1.17-4.26-4.07-4.26-8.71v-5.71c0-3.23-1.48-4.84-4.45-4.84v-5.21c4.05,0,6.98.78,8.8,2.32,1.82,1.55,2.73,4.2,2.73,7.95v6.37c0,3.51,1.42,5.26,4.26,5.26v5.12Z"/>
      </g>
    </g>
  </g>
</svg>