<svg width="18" height="18" viewBox="0 0 18 18" fill="none" xmlns="http://www.w3.org/2000/svg">
<path d="M9 5.34309C5.68743 5.34309 3 4.40728 3 3.17091V14.7403C3 15.9286 5.63818 16.8935 8.91539 16.9112H9C12.3126 16.9112 15 15.9754 15 14.7403V3.17091C15 4.37824 12.3126 5.34183 9 5.34183V5.34309Z" fill="url(#paint0_linear_9_29)"/>
<path d="M15 3.17091C15 4.37824 12.3126 5.34182 9 5.34182C5.68743 5.34182 3 4.40728 3 3.17091C3 1.93454 5.68743 1 9 1C12.3126 1 15 1.9358 15 3.17091Z" fill="#E2E2E2"/>
<path d="M13.6058 2.99411C13.6058 3.76194 11.5346 4.3795 9 4.3795C6.46538 4.3795 4.39423 3.76068 4.39423 2.99411C4.39423 2.22753 6.46538 1.61755 9 1.61755C11.5346 1.61755 13.6058 2.23511 13.6058 2.99284" fill="#8EC8E7"/>
<path d="M12.6422 3.83645C11.4652 3.47021 10.2351 3.30225 9.00126 3.34014C7.78131 3.30856 6.56641 3.48537 5.40707 3.85918C6.25321 4.17617 7.5502 4.37823 9.00126 4.37823C9.73753 4.37823 10.4334 4.32645 11.0509 4.233C11.5902 4.14207 12.1219 4.01073 12.6422 3.83519V3.83645Z" fill="#1E89B2"/>
<path d="M7.70932 13.8221C7.19785 13.8221 6.82656 13.7287 6.59545 13.5405C6.36308 13.3536 6.2469 13.0189 6.2469 12.539V11.6954C6.2469 11.2648 6.06883 11.0488 5.71269 11.0488V10.4022C6.06883 10.4022 6.2469 10.1787 6.2469 9.73038V8.94612C6.2469 8.4637 6.36182 8.12398 6.59167 7.92823C6.82151 7.73248 7.19406 7.63524 7.70932 7.63524V8.29321C7.33425 8.29321 7.14734 8.49653 7.14734 8.90445V9.65334C7.14734 10.2153 6.96674 10.5715 6.60556 10.718V10.7318C6.96674 10.8771 7.14734 11.237 7.14734 11.8116V12.5327C7.14734 12.7626 7.19154 12.9255 7.27868 13.0215C7.36708 13.1175 7.50979 13.1654 7.70932 13.1654V13.8234V13.8221Z" fill="#F3F3F3"/>
<path d="M12.2873 11.0488C11.9286 11.0488 11.7493 11.2686 11.7493 11.7068V12.5188C11.7493 13.0139 11.6357 13.3549 11.4071 13.5418C11.1785 13.7287 10.8072 13.8234 10.2945 13.8234V13.1654C10.4915 13.1654 10.6342 13.1175 10.7238 13.0227C10.8135 12.928 10.8577 12.7664 10.8577 12.539V11.7902C10.8577 11.2294 11.037 10.8796 11.3957 10.7394V10.7255C11.037 10.5778 10.8577 10.2115 10.8577 9.62556V8.90445C10.8577 8.49653 10.6708 8.29321 10.2957 8.29321V7.63524C10.8072 7.63524 11.1772 7.73374 11.4071 7.92823C11.6369 8.12398 11.7518 8.45864 11.7518 8.93223V9.73669C11.7518 10.18 11.9312 10.401 12.2898 10.401V11.0476L12.2873 11.0488Z" fill="#F3F3F3"/>
<defs>
<linearGradient id="paint0_linear_9_29" x1="3" y1="10.041" x2="15" y2="10.041" gradientUnits="userSpaceOnUse">
<stop stop-color="#005DA1"/>
<stop offset="0.07" stop-color="#0562AA"/>
<stop offset="0.36" stop-color="#2772B9"/>
<stop offset="0.52" stop-color="#3077BB"/>
<stop offset="0.64" stop-color="#2C74B9"/>
<stop offset="0.82" stop-color="#186CB5"/>
<stop offset="1" stop-color="#005DA1"/>
</linearGradient>
</defs>
</svg>
